<?xml version="1.0" standalone="no"?>
<!DOCTYPE svg PUBLIC "-//W3C//DTD SVG 1.1//EN" "http://www.w3.org/Graphics/SVG/1.1/DTD/svg11.dtd" >
<svg xmlns="http://www.w3.org/2000/svg">
<metadata>
<json>
<![CDATA[
{
	"fontFamily": "Vtiger-icons",
	"majorVersion": 1,
	"minorVersion": 0,
	"version": "Version 1.0",
	"fontId": "Vtiger-icons",
	"psName": "Vtiger-icons",
	"subFamily": "Regular",
	"fullName": "Vtiger-icons",
	"description": "Font generated by IcoMoon."
}
]]>
</json>
</metadata>
<defs>
<font id="Vtiger-icons" horiz-adv-x="1024">
<font-face units-per-em="1024" ascent="960" descent="-64" />
<missing-glyph horiz-adv-x="1024" />
<glyph unicode="&#x20;" horiz-adv-x="512" d="" />
<glyph unicode="&#xe600;" glyph-name="accounts" data-tags="accounts" d="M944.128 643.325h-312c-44.188 0-80-35.816-80-80h472c0 44.184-35.82 80-80 80zM552.128 483.325v-556.468h119.72v304.312h232.556v-304.312h119.724v556.468zM391.872 950.857h-312c-44.18 0-80-35.812-80-80v-944h472v944c0 44.188-35.812 80-80 80zM79.308 830.857c0 22.092 17.908 40 40 40h76.648v-160h-116.648v120zM79.596 630.857h116.648v-160h-116.648v160zM196.248 230.857h-116.652v160h116.648v-160zM275.512 630.857h116.648v-160h-116.648v160zM392.16 230.857h-116.648v160h116.648v-160zM392.16 710.857h-116.648v160h76.648c22.092 0 40-17.908 40-40v-120z" />
<glyph unicode="&#xe601;" glyph-name="add" data-tags="add" d="M944 518.857h-352v352c0 44.184-35.816 80-80 80s-80-35.816-80-80v-352h-352c-44.18 0-80-35.816-80-80 0-44.18 35.82-80 80-80h352v-352c0-44.184 35.816-80 80-80s80 35.816 80 80v352h352c44.184 0 80 35.816 80 80s-35.816 80-80 80z" />
<glyph unicode="&#xe602;" glyph-name="alert" data-tags="alert" d="M1007.688 110.729l-425.268 793.92c-15.232 28.416-40.412 45.452-67.376 45.54-26.96 0.132-52.232-16.704-67.584-45.032l-430.848-793.84c-19.412-35.808-21.68-82.432-5.884-121 15.816-38.612 47.092-62.792 81.196-62.792h840.144c34 0 65.196 24.052 81.056 62.456 15.856 38.404 13.776 84.904-5.436 120.748v0zM512.008 56.857c-35.764 0-64.768 28.64-64.768 64.052 0 35.408 29.004 64.044 64.768 64.044s64.772-28.636 64.772-64.044c0-35.412-29.008-64.052-64.772-64.052v0zM454.384 707.813c14.82 20.612 35.716 32.324 57.628 32.324 21.904 0 42.796-11.712 57.632-32.324 14.836-20.604 22.244-48.172 20.4-76.096l-24.608-375.524c-16.384 9.32-34.384 14.736-53.416 14.736-19.036 0-37.036-5.416-53.416-14.736l-24.616 375.524c-1.852 27.924 5.56 55.492 20.396 76.096v0z" />
<glyph unicode="&#xe603;" glyph-name="assets" data-tags="assets" d="M883.176 804.557l-69.656 105.792c-13.764 24.172-39.712 40.508-69.52 40.508h-464c-29.212 0-54.688-15.708-68.656-39.084l-0.040 0.1-70.82-107.56 0.124 0.008c-12.768-14.176-20.608-32.88-20.608-53.464v-744c0-44.18 35.816-80 80-80h624c44.184 0 80 35.82 80 80v744c0 20.696-7.924 39.496-20.824 53.7zM824 72.693c0-36.36-28.508-65.836-63.672-65.836h-496.656c-35.164 0-63.672 29.476-63.672 65.836v612.324c0 4.3 0.428 8.496 1.188 12.568 5.68 30.348 31.48 53.272 62.484 53.272h496.656c31.004 0 56.804-22.924 62.48-53.272 0.76-4.072 1.192-8.268 1.192-12.568v-612.324zM732 709.745h-440c-28.72 0-52-23.28-52-52v-143.224h544v143.224c0 28.72-23.28 52-52 52zM588 592.133h-152c-11.048 0-20 8.956-20 20s8.952 20 20 20h152c11.048 0 20-8.956 20-20s-8.952-20-20-20zM240 476.525v-193.668h544v193.668h-544zM588 359.689h-152c-11.048 0-20 8.956-20 20s8.952 20 20 20h152c11.048 0 20-8.956 20-20s-8.952-20-20-20zM240 242.857v-143.108c0-28.72 23.28-52 52-52h440c28.72 0 52 23.28 52 52v143.108h-544zM588 125.301h-152c-11.048 0-20 8.956-20 20s8.952 20 20 20h152c11.048 0 20-8.956 20-20s-8.952-20-20-20z" />
<glyph unicode="&#xe604;" glyph-name="attachment" data-tags="attachment" d="M414.948-23.315l0.252-0.184c-0.048 0.18-0.092 0.356-0.14 0.536-0.040-0.116-0.068-0.236-0.112-0.352zM1024 677.869c0.22 65.74-25.040 127.524-71.124 173.98l-26.516 26.732c-39.352 39.688-91.632 64.844-147.212 70.836-74.116 7.988-146.836-17.564-199.532-70.116l-507.216-505.812c-46.464-46.324-72.172-108.008-72.4-173.668-0.22-65.66 25.084-127.46 71.244-173.988l26.504-26.728c39.36-39.688 91.636-64.848 147.2-70.832 8.58-0.92 17.3-1.408 25.94-1.416 65.084-0.128 126.44 24.968 172.552 70.532 0.16 0.14 0.24 0.224 342.172 341.172 60.916 60.732 61.244 159.772 0.756 220.76l-13.9 13.996c-24.992 25.2-58.204 41.176-93.484 44.98-47.064 5.076-93.236-11.156-126.688-44.528l-341.544-340.584c-22.324-22.256-22.456-58.552-0.276-80.896 9.176-9.256 21.356-15.108 34.28-16.5 17.208-1.864 34.124 4.084 46.412 16.332l341.544 340.588c8.928 8.908 21.28 13.232 33.844 11.88 9.548-1.032 18.188-5.176 24.936-11.996l13.908-14.028c7.812-7.868 12.092-18.34 12.056-29.492-0.032-11.156-4.392-21.608-12.244-29.444l-341.16-340.208c-28.164-28.060-67.040-41.712-106.66-37.424-29.696 3.192-57.644 16.628-78.676 37.86l-26.524 26.712c-24.664 24.884-38.196 57.916-38.072 93.020 0.112 35.104 13.86 68.080 38.704 92.844l507.208 505.8c28.172 28.088 67.048 41.748 106.68 37.476 29.72-3.2 57.648-16.652 78.696-37.86l26.508-26.728c50.944-51.356 50.664-134.728-0.616-185.852-10.82-10.796-16.796-25.14-16.852-40.424-0.056-15.28 5.836-29.664 16.58-40.488 9.172-9.26 21.352-15.108 34.272-16.5 17.22-1.86 34.14 4.088 46.408 16.332 46.392 46.26 72.080 107.944 72.292 173.68v0z" />
<glyph unicode="&#xe605;" glyph-name="autoresponder" data-tags="autoresponder" d="M0 686.565v-336.7l239.884 168.352zM432.344 470.209c6.688 0 12.916 1.852 18.148 5.024l413.508 290.22v1.716c0 35.176-30.22 63.688-67.5 63.688h-729c-37.276 0-67.5-28.512-67.5-63.688v-1.236l414.188-290.704c5.24-3.168 11.468-5.020 18.156-5.020zM493.856 426.277l-40.62-28.508c-0.68-0.508-1.36-1.008-2.080-1.46-5.376-3.412-11.844-5.408-18.812-5.408-6.96 0-13.436 1.996-18.804 5.408-0.72 0.452-1.408 0.952-2.084 1.46l-115.032 80.744-296.424-208.124c0-35.168 30.224-63.692 67.5-63.692h417.116c-10.72 30.752-16.616 63.756-16.616 98.164 0 43.26 9.288 84.328 25.856 121.416zM864 586.365v99.716l-119.692-84.008c7.172 0.516 14.388 0.872 21.692 0.872 34.344-0.004 67.296-5.884 98-16.58zM786 522.889c-131.444 0-238-106.564-238-238.020s106.556-238.012 238-238.012 238 106.556 238 238.012-106.556 238.020-238 238.020zM843.332 234.053c0-22.092-17.912-40.012-40-40.012h-136c-22.088 0-40 17.916-40 40.012s17.912 40.004 40 40.004h96v136.044c0 22.084 17.912 40 40 40s40-17.916 40-40v-176.048z" />
<glyph unicode="&#xe606;" glyph-name="bell" data-tags="bell" d="M392.008 47.017v0c-0.004-0.088-0.008-0.164-0.008-0.248 0-66.224 53.728-119.912 120-119.912s120 53.688 120 119.916c0 0.084-0.004 0.164-0.008 0.248h-239.984zM851.916 226.301l0.148 0.028c-87.928 25.128-98.164 305.156-99.28 386.3 0.108 2.98 0.232 5.956 0.232 8.964 0 4.296-0.12 8.568-0.344 12.808 0 0.084 0 0.18 0 0.18l-0.016-0.004c-5.86 110.172-85.832 200.656-190.996 222.672 6.524 9.592 10.344 21.172 10.344 33.648-0.004 33.116-26.868 59.96-60.004 59.96s-60-26.844-60-59.956c0-12.476 3.82-24.060 10.344-33.652-105.172-22.032-185.144-112.54-190.98-222.736l-0.024 0.004c0 0 0-0.096 0.004-0.284-0.22-4.188-0.332-8.404-0.332-12.64 0-2.9 0.116-5.764 0.22-8.64-1.088-80.624-11.216-361.36-99.22-386.668-29.352-3.908-52.012-28.96-52.012-59.356 0-33.108 26.864-59.952 60-59.952h664c33.136 0 60 26.844 60 59.952 0 30.42-22.7 55.492-52.084 59.372z" />
<glyph unicode="&#xe607;" glyph-name="bulb" data-tags="bulb" d="M444.896-16.543v-18.588c0-20.992 17.176-38.012 38.424-38.012h57.38c21.208 0 38.436 17.020 38.436 38.012v18.588c43.488 3.060 77.924 46.536 77.924 90.296h-290.124c0-43.76 34.464-87.236 77.96-90.296v0zM512.024 950.857c-191.104 0-346.024-153.152-346.024-342.088 0-79.724 27.736-152.896 74.068-211.004 40.968-51.336 79.808-107.476 113.272-163.928h317.304c33.804 56.984 71.948 112.072 113.316 163.96 46.288 58.084 74.040 131.272 74.040 210.976 0 188.932-154.916 342.084-345.976 342.084v0zM512.588 832.169c-122.832 0-222.72-98.776-222.72-220.18 0-18.844-15.44-34.132-34.536-34.132-19.088 0-34.524 15.288-34.524 34.132 0 159.044 130.88 288.448 291.772 288.448 19.048 0 34.536-15.284 34.536-34.132 0.004-18.848-15.476-34.136-34.528-34.136v0zM674.576 153.829c0-22.088-18.092-40-40.42-40h-244.308c-22.328 0-40.424 17.912-40.424 40v0c0 22.088 18.096 40 40.424 40h244.304c22.328 0 40.424-17.9 40.424-40v0z" />
<glyph unicode="&#xe608;" glyph-name="calendar" data-tags="calendar" d="M396 790.857c0-44.184-35.816-80-80-80v0c-44.184 0-80 35.816-80 80v80c0 44.184 35.816 80 80 80v0c44.184 0 80-35.816 80-80v-80zM788 790.857c0-44.184-35.816-80-80-80v0c-44.184 0-80 35.816-80 80v80c0 44.184 35.816 80 80 80v0c44.184 0 80-35.816 80-80v-80zM944 830.857h-116.468v-32c0-66.168-53.832-120-120-120s-120 53.832-120 120v32h-152v-40c0-66.168-53.832-120-120-120s-120 53.832-120 120v40h-115.532c-44.184 0-80-35.82-80-80v-744c0-44.18 35.816-80 80-80h864c44.18 0 80 35.82 80 80v744c0 44.18-35.82 80-80 80zM944 86.857c0-44.18-35.812-80-80-80h-704c-44.184 0-80 35.82-80 80v464h864v-464zM352.792 399.357c0-33.137-26.863-60-60-60s-60 26.863-60 60c0 33.137 26.863 60 60 60s60-26.863 60-60zM574.144 399.357c0-33.137-26.863-60-60-60s-60 26.863-60 60c0 33.137 26.863 60 60 60s60-26.863 60-60zM795.5 399.357c0-33.137-26.863-60-60-60s-60 26.863-60 60c0 33.137 26.863 60 60 60s60-26.863 60-60zM352.792 159.357c0-33.137-26.863-60-60-60s-60 26.863-60 60c0 33.137 26.863 60 60 60s60-26.863 60-60zM574.144 159.357c0-33.137-26.863-60-60-60s-60 26.863-60 60c0 33.137 26.863 60 60 60s60-26.863 60-60zM795.5 159.357c0-33.137-26.863-60-60-60s-60 26.863-60 60c0 33.137 26.863 60 60 60s60-26.863 60-60z" />
<glyph unicode="&#xe609;" glyph-name="calendaragenda" data-tags="calendaragenda" d="M396 790.857c0-44.184-35.816-80-80-80v0c-44.184 0-80 35.816-80 80v80c0 44.184 35.816 80 80 80v0c44.184 0 80-35.816 80-80v-80zM788 790.857c0-44.184-35.816-80-80-80v0c-44.184 0-80 35.816-80 80v80c0 44.184 35.816 80 80 80v0c44.184 0 80-35.816 80-80v-80zM944 830.857h-116.468v-32c0-66.168-53.832-120-120-120s-120 53.832-120 120v32h-152v-40c0-66.168-53.832-120-120-120s-120 53.832-120 120v40h-115.532c-44.184 0-80-35.82-80-80v-744c0-44.18 35.816-80 80-80h864c44.18 0 80 35.82 80 80v744c0 44.18-35.82 80-80 80zM944 86.857c0-44.18-35.812-80-80-80h-704c-44.184 0-80 35.82-80 80v464h864v-464zM607.252 229.101l22.656-130.868-117.656 61.616-117.456-61.984 22.24 130.936-95.248 92.556 131.4 19.304 58.592 119.192 58.972-119.012 131.46-18.892z" />
<glyph unicode="&#xe60a;" glyph-name="calendarlist" data-tags="calendarlist" d="M396 790.857c0-44.184-35.816-80-80-80v0c-44.184 0-80 35.816-80 80v80c0 44.184 35.816 80 80 80v0c44.184 0 80-35.816 80-80v-80zM788 790.857c0-44.184-35.816-80-80-80v0c-44.184 0-80 35.816-80 80v80c0 44.184 35.816 80 80 80v0c44.184 0 80-35.816 80-80v-80zM944 830.857h-116.468v-32c0-66.168-53.832-120-120-120s-120 53.832-120 120v32h-152v-40c0-66.168-53.832-120-120-120s-120 53.832-120 120v40h-115.532c-44.184 0-80-35.82-80-80v-744c0-44.18 35.816-80 80-80h864c44.18 0 80 35.82 80 80v744c0 44.18-35.82 80-80 80zM944 86.857c0-44.18-35.812-80-80-80h-704c-44.184 0-80 35.82-80 80v464h864v-464zM352.792 399.357c0-33.137-26.863-60-60-60s-60 26.863-60 60c0 33.137 26.863 60 60 60s60-26.863 60-60zM352.792 159.357c0-33.137-26.863-60-60-60s-60 26.863-60 60c0 33.137 26.863 60 60 60s60-26.863 60-60zM735.5 459.357c-1.92 0-3.82-0.112-5.696-0.288v0.288h-215.66c-33.136 0-60-26.86-60-60 0-33.132 26.864-60 60-60 1.856 0 3.68 0.112 5.492 0.276l210.168 0.012c1.876-0.18 3.772-0.288 5.696-0.288 33.136 0 60 26.868 60 60 0 33.14-26.864 60-60 60zM735.5 219.357c-1.92 0-3.82-0.108-5.696-0.288v0.156h-213.032c-0.88 0.040-1.744 0.132-2.628 0.132-33.136 0-60-26.868-60-60 0-33.14 26.864-60 60-60 0.94 0 1.856 0.096 2.784 0.14l212.876 0.148c1.876-0.18 3.772-0.288 5.696-0.288 33.136 0 60 26.86 60 60 0 33.132-26.864 60-60 60z" />
<glyph unicode="&#xe60b;" glyph-name="call" data-tags="call" d="M433.852 359.749c101.472-101.14 218.868-197.848 264.94-151.188 66.076 66.848 106.72 124.992 253.18 7.568 146.464-117.416 34.58-196.476-29.324-261.216-73.772-74.676-350.132-5.208-624.032 267.948-273.936 273.228-345.172 550.344-271.288 625.016 63.908 64.784 141.744 177.74 259.6 31.404 118.048-146.252 60.468-187.572-5.512-254.308-46.184-46.684 50.96-164.020 152.436-265.224v0z" />
<glyph unicode="&#xe60c;" glyph-name="camera" data-tags="camera" d="M704 318.857c0-106.039-85.961-192-192-192s-192 85.961-192 192c0 106.039 85.961 192 192 192s192-85.961 192-192zM944 790.857h-864c-44.184 0-80-35.816-80-80v-704c0-44.184 35.816-80 80-80h864c44.184 0 80 35.816 80 80v704c0 44.184-35.816 80-80 80zM512 46.857c-150.22 0-272 121.776-272 272s121.78 272 272 272c150.22 0 272-121.776 272-272s-121.78-272-272-272zM864 628.857h-80c-22.092 0-40 17.912-40 40 0 22.092 17.908 40 40 40h80c22.092 0 40-17.908 40-40 0-22.088-17.908-40-40-40zM712 829.857v41c0 44.184-35.816 80-80 80h-240c-44.184 0-80-35.816-80-80v-41h400z" />
<glyph unicode="&#xe60d;" glyph-name="campaigns" data-tags="campaigns" d="M904.572 678.857v232c0 22.088-17.82 40-39.812 40-21.984 0-39.812-17.912-39.812-40v-704.004c0-22.084 17.828-40 39.812-40 21.992 0 39.812 17.916 39.812 40v232c65.956 0.004 119.428 53.732 119.428 120.004s-53.472 120-119.428 120zM376.284 721.389v-325.068c176.428-40.72 387.688-186.164 387.688-186.164v697.396c0 0-211.26-145.448-387.688-186.164zM143.996 415.677v0.924c-0.036-0.312 0-0.612 0-0.924zM316.68 346.729h-143.404l147.972-387.372c4.124-21.7 24.976-35.924 46.576-31.784 21.6 4.144 35.756 25.092 31.636 46.792l-82.78 372.364zM113 710.857c-59.796-21.84-113-85.804-113-151.212 0-65.416 53.204-131.080 113-152.92h203.564v304.132h-203.564z" />
<glyph unicode="&#xe60e;" glyph-name="cases" data-tags="cases" d="M78.66 269.893l71.068 0.184c43.9-218.768 199.68-343.22 362.272-343.22s257.056 73.728 319.696 209.572c-47.812-35.764-117.336-68.508-214.564-75.272-8.928-12.68-24.116-29.048-41.36-29.048h-45.42c-47.352 7.752-49.76 37.256-49.76 63.476 0 26.244 22.264 47.476 49.76 47.476h45.42c16.108 0 30.392-15.328 39.484-26.616 156.32 11.952 229.828 102.384 259.148 153.42l70.928 0.028c43.444 0 78.664 33.608 78.664 75.020v170.044c0 26.576-14.516 49.84-36.352 63.192-26.26 209.312-229.536 372.708-475.644 372.708-246.104 0-449.376-163.396-475.648-372.712-21.832-13.352-36.352-36.616-36.352-63.192v-170.044c0-41.408 35.224-75.016 78.66-75.016v0zM512 865.829c193.696 0 354.78-121.836 384.492-280.768-9.288-3.364-17.696-8.324-24.92-14.576-46.384 139.672-180.392 222.708-359.572 222.708-179.172 0-313.256-82.972-359.704-222.604-7.184 6.212-15.564 11.132-24.788 14.472 29.708 158.932 190.796 280.768 384.492 280.768v0z" />
<glyph unicode="&#xe60f;" glyph-name="chat" data-tags="chat" d="M1024 348.061c0 92.696-50.932 175.268-130.928 230.324 5.624-25.632 8.752-51.892 8.752-79.096 0-209.132-175.3-383.456-406.232-420.792 49.064-19.932 103.748-31.636 161.868-31.636 54.996 0 106.872 10.124 153.748 28.156 59.368-20.568 124.052-26.024 177.8-26.024-28.128 33.852-47.184 67.152-61.248 96.264 59.684 53.464 96.24 124.652 96.24 202.804v0zM805.892 499.285c0 183.184-180.304 331.572-402.796 331.572-222.8 0-403.096-148.388-403.096-331.572 0-95.552 49.372-181.288 127.804-241.72-14.688-38.596-39.688-88.908-82.184-140.872 80.616 0 184.364 10.84 264.048 60.428 30-5.928 61.244-9.412 93.428-9.412 222.492 0.008 402.796 148.708 402.796 331.576v0z" />
<glyph unicode="&#xe610;" glyph-name="close" data-tags="close" d="M610.432 438.853l321.148 320.86c27.088 27.068 27.248 71.256 0.336 98.504-13.136 13.308-30.652 20.64-49.308 20.64-18.484 0-35.876-7.212-48.964-20.296l-321.644-321.36-321.644 321.356c-13.096 13.088-30.484 20.3-48.964 20.3-18.668 0-36.176-7.332-49.308-20.636-26.912-27.248-26.76-71.436 0.332-98.504l321.148-320.86-321.152-320.864c-27.084-27.068-27.236-71.252-0.332-98.504 13.136-13.3 30.648-20.628 49.308-20.628 18.476 0 35.864 7.204 48.968 20.288l321.644 321.348 321.644-321.36c13.092-13.080 30.484-20.28 48.964-20.28 0 0 0 0 0.004 0 18.656 0 36.164 7.328 49.304 20.632 26.9 27.252 26.748 71.432-0.332 98.5l-321.152 320.864z" />
<glyph unicode="&#xe611;" glyph-name="code" data-tags="code" d="M392.008 830.857c-22.436 0-42.688-9.26-57.22-24.14l-0.016 0.020-310.64-310.676c-0.452-0.436-0.892-0.884-1.328-1.328l-0.672-0.668v-0.068c-13.68-14.356-22.132-33.74-22.132-55.144 0-23.452 10.156-44.492 26.252-59.12v-0.124l305.392-305.148c14.672-16.88 36.244-27.6 60.36-27.6 44.188 0 80 35.82 80 80 0 21.060-8.188 40.148-21.484 54.428l0.048 0.048-1.376 1.416c-0.328 0.34-0.656 0.688-0.992 1.020l-248.192 255.084 248.204 255.1c0.328 0.324 0.64 0.66 0.96 0.988l1.392 1.432-0.048 0.052c13.296 14.28 21.492 33.376 21.492 54.424 0 44.188-35.82 80.004-80 80.004zM1001.868 383.717c13.68 14.36 22.132 33.748 22.132 55.14 0 23.46-10.156 44.496-26.244 59.128l-0.008 0.124-305.392 305.148c-14.668 16.88-36.24 27.6-60.356 27.6-44.188 0-80-35.816-80-80 0-21.052 8.196-40.148 21.484-54.428l-0.048-0.048 1.4-1.432c0.32-0.328 0.632-0.664 0.952-0.988l248.212-255.104-248.196-255.084c-0.336-0.332-0.656-0.68-0.992-1.020l-1.376-1.416 0.048-0.048c-13.288-14.284-21.484-33.376-21.484-54.432 0-44.18 35.812-80 80-80 22.436 0 42.688 9.264 57.212 24.14l0.024-0.016 310.608 310.652c0.468 0.452 0.92 0.916 1.384 1.38l0.64 0.64v0.064z" />
<glyph unicode="&#xe612;" glyph-name="codebraces" data-tags="codebraces" d="M271.372 438.589c24.456-15.64 43.568-33.136 57.344-52.5 13.772-19.376 23.424-44.076 28.932-74.096 5.504-30.036 8.268-68.496 8.268-115.404 0-35.184 0.772-61.124 2.324-77.828s4.652-29.404 9.3-38.116c4.652-8.704 10.248-14.388 16.792-17.056 6.536-2.664 17.732-5.244 33.58-7.732 13.092-1.768 23.936-8.348 32.552-19.72 8.604-11.376 12.916-26.296 12.916-44.78 0-42.992-25.316-64.5-75.948-64.5-31.344 0-59.332 6.756-83.952 20.256-24.632 13.512-43.66 32.604-57.092 57.304-13.428 24.704-20.328 53.040-20.664 85.020-1.032 54.020-2.068 97.372-3.1 130.072-1.032 32.688-2.584 53.832-4.648 63.428-5.168 23.804-12.832 41.752-22.996 53.84-10.16 12.076-23.424 23.36-39.78 33.848-16.364 10.476-27.988 19.9-34.872 28.252-6.896 8.34-10.332 21.584-10.332 39.708 0 26.296 9.988 46.024 29.964 59.176 24.8 15.992 42.448 29.584 52.956 40.776 10.5 11.192 17.904 25.584 22.216 43.176 4.3 17.588 6.796 36.78 7.492 57.568 0.688 20.788 1.72 70.808 3.1 150.056 1.036 49.040 16.096 88.22 45.204 117.536 29.104 29.324 67.94 43.984 116.504 43.984 50.632 0 75.948-21.148 75.948-63.436 0-19.188-4.228-34.296-12.66-45.308-8.444-11.020-19.376-17.416-32.812-19.188-19.976-2.848-33.928-7.112-41.844-12.792-7.928-5.688-13.092-16.708-15.496-33.052-2.416-16.348-3.964-47.976-4.652-94.884-0.696-45.84-3.36-83.42-8.008-112.74s-13.78-54.288-27.38-74.896c-13.608-20.612-33.324-39.272-59.156-55.972zM752.628 438.589c-18.604 12.084-33.764 24.7-45.468 37.852-11.716 13.144-21.36 29.136-28.928 47.976-7.584 18.832-12.916 41.128-16.020 66.9-3.096 25.764-4.648 56.056-4.648 90.884 0 33.756-0.696 59.612-2.068 77.564-1.38 17.94-4.132 31-8.264 39.176-4.132 8.168-9.908 13.768-17.304 16.792-7.416 3.016-18.688 5.412-33.844 7.196-12.744 1.776-23.504 8.168-32.288 19.188-8.78 11.012-13.172 26.12-13.172 45.308-0.004 42.284 24.964 63.432 74.908 63.432 32.032 0 60.192-6.664 84.468-19.992 24.28-13.324 43.404-32.34 57.348-57.036 13.952-24.704 21.092-52.864 21.44-84.492 2.068-117.988 4.472-182.836 7.232-194.564 5.508-23.456 13.608-41.312 24.288-53.576 10.668-12.256 23.584-23.104 38.752-32.516 15.144-9.42 26.42-18.748 33.836-27.988 7.4-9.244 11.104-23.28 11.104-42.116 0-26.652-9.812-46.2-29.444-58.632-24.112-15.28-41.588-28.7-52.44-40.244-10.848-11.556-18.428-25.948-22.736-43.18-4.308-17.244-6.892-43.096-7.748-77.564-0.864-34.468-1.808-77.636-2.844-129.532-1.032-49.040-16.272-88.392-45.724-118.072-29.448-29.652-68.628-44.496-117.532-44.496-24.108 0-42.62 5.516-55.54 16.528-12.916 11.020-19.372 27.008-19.372 47.972 0 11.732 2.068 22.484 6.204 32.252 4.128 9.776 9.556 17.324 16.272 22.652 6.712 5.336 14.372 8.536 22.984 9.596 15.5 2.132 27.036 4.796 34.616 7.996 7.576 3.204 13.344 9.248 17.304 18.12 3.96 8.892 6.544 21.948 7.752 39.184 1.2 17.24 1.804 42.38 1.804 75.428 0.688 49.040 3.44 87.416 8.268 115.132 4.816 27.724 13.948 51.528 27.384 71.432 13.432 19.9 33.236 38.384 59.42 55.44z" />
<glyph unicode="&#xe613;" glyph-name="cog" data-tags="cog" d="M961.28 541.613h-49.016c-13.26 0-28.708 12.004-33.772 26.188-4.66 13.196-10.136 26.292-16.292 38.984-6.532 13.496-4.112 32.82 5.24 42.2l34.9 34.904c24.452 24.42 24.452 64.216 0 88.676l-56.632 56.632c-11.836 11.832-27.584 18.328-44.32 18.328-16.764 0-32.48-6.496-44.352-18.328l-34.864-34.904c-5.612-5.616-14.932-8.94-24.964-8.94-6.26 0-12.212 1.256-17.248 3.7-12.688 6.124-25.816 11.636-39.016 16.328-14.216 5.036-26.224 20.52-26.224 33.78v49.012c0 34.56-28.096 62.684-62.688 62.684h-80.1c-34.56 0-62.688-28.124-62.688-62.684v-49.012c0-13.26-12.004-28.744-26.224-33.78-13.164-4.688-26.296-10.168-38.984-16.288-4.924-2.376-11.044-3.712-17.204-3.712-10.076 0-19.428 3.372-25.032 8.988l-34.832 34.832c-11.844 11.832-27.584 18.364-44.32 18.364-16.768 0-32.516-6.532-44.356-18.364l-56.668-56.672c-11.868-11.84-18.364-27.548-18.4-44.32 0-16.736 6.532-32.48 18.364-44.32l34.9-34.904c9.388-9.384 11.808-28.708 5.276-42.2-6.12-12.692-11.632-25.788-16.288-38.984-5.044-14.184-20.516-26.188-33.776-26.188h-49.016c-34.56 0-62.684-28.128-62.684-62.688v-80.136c0-34.56 28.124-62.688 62.684-62.688h49.016c13.26 0 28.736-11.972 33.776-26.188 4.656-13.164 10.168-26.26 16.288-38.944 6.532-13.504 4.108-32.86-5.276-42.248l-34.9-34.9c-24.416-24.42-24.416-64.216 0-88.636l56.704-56.736c11.868-11.836 27.584-18.368 44.356-18.368 16.74 0 32.476 6.532 44.32 18.368l34.9 34.9c5.608 5.608 14.956 8.976 25 8.976 6.252 0 12.208-1.292 17.208-3.708 12.684-6.12 25.816-11.632 38.98-16.292 14.184-5.032 26.188-20.508 26.188-33.772v-49.012c0-34.56 28.128-62.688 62.688-62.688h80.1c34.592 0 62.724 28.128 62.724 62.688v49.012c0 13.264 11.972 28.744 26.188 33.772 13.2 4.66 26.328 10.172 39.016 16.292 4.9 2.384 11.020 3.676 17.176 3.676 10.072 0 19.42-3.336 25.036-8.944l34.9-34.9c11.836-11.836 27.552-18.368 44.316-18.368 16.736 0 32.484 6.532 44.32 18.368l56.668 56.7c24.416 24.456 24.416 64.22 0 88.672l-34.864 34.864c-9.392 9.388-11.804 28.744-5.272 42.248 6.156 12.652 11.632 25.78 16.292 38.98 5.032 14.184 20.508 26.188 33.772 26.188h49.016c34.556 0 62.684 28.128 62.684 62.688v80.1c-0.036 34.596-28.164 62.724-62.724 62.724v0zM695.704 438.857c0-101.292-82.416-183.74-183.708-183.74-101.324 0-183.74 82.448-183.74 183.74s82.416 183.74 183.74 183.74c101.292 0 183.708-82.412 183.708-183.74v0z" />
<glyph unicode="&#xe614;" glyph-name="columns" data-tags="columns" d="M280 6.857c0-44.184-35.816-80-80-80v0c-44.184 0-80 35.816-80 80v864c0 44.184 35.816 80 80 80v0c44.184 0 80-35.816 80-80v-864zM592 6.857c0-44.184-35.816-80-80-80v0c-44.184 0-80 35.816-80 80v864c0 44.184 35.816 80 80 80v0c44.184 0 80-35.816 80-80v-864zM904 6.857c0-44.184-35.82-80-80-80v0c-44.188 0-80 35.816-80 80v864c0 44.184 35.812 80 80 80v0c44.18 0 80-35.816 80-80v-864z" />
<glyph unicode="&#xe615;" glyph-name="compose" data-tags="compose" d="M248.268 302.617c23.232-17.544 46.112-37.372 68.124-59.372 22.004-22.016 41.836-44.888 59.368-68.124l573.492 573.484c-16.468 23.66-35.936 47.044-58.196 69.308-22.264 22.264-45.644 41.728-69.304 58.192l-573.484-573.488zM870.096 924.449l-18.536-18.54c23.236-17.532 46.108-37.368 68.116-59.372s41.836-44.884 59.376-68.124l18.54 18.54c35.208 35.208 35.208 92.292 0 127.496-35.204 35.212-92.288 35.208-127.496 0zM209.040 263.389l-13.18-12.784v-127.896h127.892l12.984 12.984 9.228 9.62c-16.46 23.66-35.928 47.040-58.196 69.3-22.26 22.26-45.644 41.732-69.304 58.196l-9.424-9.42zM892.964 570.585v-512.7h-761.932v761.94h508.192l123.032 131.032h-672.236c-49.72 0-90.020-40.304-90.020-90.024v-843.956c0-49.72 40.304-90.020 90.020-90.020h843.96c49.712 0 90.020 40.3 90.020 90.020v676.74l-131.036-123.032z" />
<glyph unicode="&#xe616;" glyph-name="contacts" data-tags="contacts" d="M511.992 950.857c141.652 0 256.004-114.348 256.004-256.004s-114.352-256.004-256.004-256.004c-141.66 0-255.992 114.348-255.992 256.004s114.332 256.004 255.992 256.004v0zM1023.864 37.577c-5.744 207.312-342.652 321.272-511.872 321.272-169.204 0-506.116-113.96-511.856-321.272h-0.136v-30.72c0-44.184 35.816-80 80-80h864c44.184 0 80 35.816 80 80v30.72h-0.136z" />
<glyph unicode="&#xe617;" glyph-name="customerportal" data-tags="customerportal" d="M944 950.857h-864c-44.184 0-80-35.816-80-80v-624c0-44.184 35.816-80 80-80h372v-120h-87.536c-17.944 0-21.992-4.724-35.276-18.668l-72.48-74.112h0.080c-2.992-2.748-4.784-5.972-4.784-9.46 0-9.808 13.7-17.756 30.588-17.756h458.832c16.884 0 30.584 7.948 30.584 17.756 0 3.484-1.796 6.716-4.784 9.456 0.032 0.008 0.056 0.012 0.080 0.012l-72.468 74.104c-12.176 13.416-17.324 18.668-35.284 18.668h-87.552v120h372c44.184 0 80 35.816 80 80v624c0 44.184-35.816 80-80 80zM904 366.857c0-44.184-35.816-80-80-80h-26.236c-49.58 82.492-195.148 127.080-275.104 127.080-79.948 0-225.512-44.584-275.092-127.080h-47.568c-44.184 0-80 35.816-80 80v384c0 44.184 35.816 80 80 80h624c44.184 0 80-35.816 80-80v-384zM522.66 751.797c-80.844 0-146.088-65.256-146.088-146.104 0-80.844 65.248-146.1 146.088-146.1s146.104 65.256 146.104 146.1c0 80.844-65.264 146.104-146.104 146.104z" />
<glyph unicode="&#xe618;" glyph-name="default" data-tags="default" d="M944 950.857h-864c-44.184 0-80-35.816-80-80v-864c0-44.188 35.816-80 80-80h864c44.184 0 80 35.812 80 80v864c0 44.184-35.816 80-80 80zM120 750.857c0 44.184 35.816 80 80 80h624c28.708 0 53.808-15.168 67.92-37.88l-749.42-721.664c-13.908 14.392-22.5 33.952-22.5 55.544v624z" />
<glyph unicode="&#xe619;" glyph-name="detailreport" data-tags="detailreport" d="M1024 890.857c0-33.136-26.864-60-60-60h-904c-33.136 0-60 26.864-60 60v0c0 33.136 26.864 60 60 60h904c33.136 0 60-26.864 60-60v0zM472 6.857c0-44.18-35.816-80-80-80h-312c-44.184 0-80 35.82-80 80v664c0 44.184 35.816 80 80 80h312c44.184 0 80-35.816 80-80v-664zM964 630.857c33.136 0 60 26.864 60 60s-26.864 60-60 60h-408.74v-120h408.74zM964 396.189c33.136 0 60 26.864 60 60s-26.864 60-60 60h-408.74v-120h408.74zM964 161.521c33.136 0 60 26.868 60 60 0 33.14-26.864 60-60 60h-408.74v-120h408.74zM964-73.143c33.136 0 60 26.868 60 60 0 33.14-26.864 60-60 60h-408.332v-120h408.332z" />
<glyph unicode="&#xe61a;" glyph-name="documents" data-tags="documents" d="M142.36 724.477h145.336c24.212 0.216 43.812 21.172 44.008 47.052v155.484c0 14.324-11 23.844-22.4 23.844-5.5 0-11-2.132-15.6-7.060l-167.14-178.688c-14.016-14.968-4.112-40.632 15.796-40.632v0zM824 950.857h-423.052c1.784-7.664 2.752-15.636 2.752-23.844v-156.1c-0.532-69.116-71.844-117.832-139.296-118.428l-0.352-0.004h-144.052v-645.624c0-44.188 35.816-80 80-80h624c44.184 0 80 35.812 80 80v864c0 44.184-35.816 80-80 80zM604 66.857h-304c-33.136 0-60 22.384-60 50 0 27.608 26.864 50 60 50h304c33.136 0 60-22.392 60-50 0-27.616-26.864-50-60-50zM724 266.849h-424c-33.136 0-60 22.384-60 50 0 27.608 26.864 50 60 50h424c33.136 0 60-22.392 60-50 0-27.616-26.864-50-60-50zM724 466.849h-424c-33.136 0-60 22.392-60 50 0 27.616 26.864 50.004 60 50.004h424c33.136 0 60-22.388 60-50.004 0-27.608-26.864-50-60-50z" />
<glyph unicode="&#xe61b;" glyph-name="duplicaterecords" data-tags="duplicaterecords" d="M796.156 950.857h-518.292c-43.692 0-78.060-36.468-78.060-82.852v-66.232h-121.748c-43.688 0-78.056-36.488-78.056-82.86v-709.204c0-46.372 34.368-82.852 78.056-82.852h668.156c43.688 0 77.984 36.48 77.984 82.852v66.312h121.816c43.688 0 77.988 36.408 77.988 82.856v563.356l-227.844 228.624zM726.252 919.689l268.932-270.904h-173.264c-50.068 0-95.668 43.552-95.668 101.536v169.368zM734.244 49.709c0-16.54-12.452-26.508-24.968-26.508h-591.22c-15.584 0-24.976 13.288-24.976 26.508v629.204c0 16.54 12.452 26.508 24.976 26.508h81.748v-546.544c0-46.376 34.368-82.856 78.060-82.856h456.38v-26.312z" />
<glyph unicode="&#xe61c;" glyph-name="edit" data-tags="edit" d="M79.18 165.645c29.088-21.952 57.724-46.776 85.276-74.316 27.548-27.556 52.38-56.196 74.324-85.276l670.068 670.048c-20.612 29.62-44.984 58.896-72.844 86.76-27.872 27.872-57.136 52.236-86.752 72.84l-670.072-670.056zM831.336 917.805l-23.2-23.208c29.084-21.948 57.72-46.772 85.264-74.324 27.552-27.544 52.376-56.192 74.328-85.28l23.212 23.212c44.080 44.076 44.080 115.524 0 159.6-44.072 44.072-115.536 44.068-159.604 0zM16.5 102.961l-16.5-16.008v-160.096h160.092l16.252 16.252 11.548 12.048c-20.604 29.62-44.972 58.884-72.84 86.756-27.868 27.868-57.136 52.236-86.764 72.84l-11.788-11.792z" />
<glyph unicode="&#xe61d;" glyph-name="emailcampaigns" data-tags="email campaigns" d="M414.34 475.273c5.244-3.172 11.472-5.024 18.164-5.024s12.92 1.852 18.16 5.024l413.652 290.184v1.72c0 35.172-30.232 63.68-67.524 63.68h-729.268c-37.284 0-67.524-28.508-67.524-63.68v-1.236l414.34-290.668zM453.4 397.825c-0.68-0.508-1.36-1.008-2.080-1.456-5.376-3.412-11.848-5.408-18.82-5.408-6.964 0-13.44 1.996-18.812 5.408-0.72 0.448-1.408 0.948-2.080 1.456l-115.072 80.732-296.536-208.092c0-35.168 30.24-63.684 67.524-63.684h729.268c37.276 0 67.496 28.488 67.524 63.632l-296.272 207.836-114.644-80.424zM864.316 686.097l-239.696-168.16 239.696-168.156zM0 686.573v-336.68l239.972 168.34zM1024 126.865v464.060c0 44.184-35.824 80.008-80.032 80.008v-480.52c-0.992-34.004-27.772-61.456-61.504-63.552h-722.78c0-44.188 35.832-80.008 80.028-80.008h704.256c44.208 0.004 80.032 35.824 80.032 80.012z" />
<glyph unicode="&#xe61e;" glyph-name="emails" data-tags="emails" d="M490.892 384.149c6.212-3.98 13.588-6.308 21.516-6.308s15.304 2.328 21.516 6.308l490.076 364.552v2.156c0 44.184-35.816 80-80 80h-864c-44.184 0-80-35.816-80-80v-1.552l490.892-365.156zM537.16 286.853c-0.8-0.636-1.608-1.26-2.46-1.832-6.368-4.284-14.040-6.788-22.292-6.788s-15.924 2.504-22.292 6.788c-0.852 0.572-1.66 1.196-2.46 1.832l-136.336 101.416-351.32-261.412c0-44.184 35.816-80 80-80h864c44.164 0 79.964 35.784 79.996 79.936l-351.004 261.1-135.832-101.040zM1024 648.997l-283.988-211.248 283.988-211.248zM0 649.601v-422.964l284.3 211.48z" />
<glyph unicode="&#xe61f;" glyph-name="emailtemplates" data-tags="emailtemplates" d="M166.412 526.161v61.664c0 34.992 27.892 63.336 62.308 63.336h566.58c34.412 0 62.3-28.344 62.3-63.336v-61.632l79.832 81.164c3.352 3.392 5.104 8.104 4.796 12.92-0.284 4.812-2.592 9.248-6.344 12.204l-385.636 305.032c-22.496 17.792-53.996 17.792-76.496 0l-385.652-305.020c-3.756-2.968-6.072-7.404-6.352-12.216-0.296-4.816 1.444-9.532 4.8-12.92l79.864-81.196zM1013.804 557.813c-6.18 2.588-13.3 1.152-18.032-3.664l-422.888-429.864c-16.152-16.42-38.064-25.656-60.9-25.656s-44.752 9.236-60.884 25.656l-422.864 429.844c-4.74 4.82-11.848 6.264-18.032 3.644-6.168-2.58-10.204-8.728-10.204-15.508v-546.016c0-38.32 30.564-69.392 68.264-69.392h887.468c37.7 0 68.264 31.072 68.264 69.392v546.024c0.004 6.8-4.028 12.928-10.192 15.54v0zM701.168 554.285h-378.316c-18.852 0-34.132-15.532-34.132-34.7 0-19.152 15.28-34.696 34.132-34.696h378.316c18.852 0 34.132 15.544 34.132 34.696 0 19.172-15.28 34.7-34.132 34.7v0zM701.168 415.497h-378.316c-18.852 0-34.132-15.532-34.132-34.696s15.28-34.696 34.132-34.696h378.316c18.852 0 34.132 15.532 34.132 34.696s-15.28 34.696-34.132 34.696v0z" />
<glyph unicode="&#xe620;" glyph-name="engagementhistory" data-tags="engagement history" d="M307.104 67.205c13.572-13.568 31.364-20.348 49.152-20.348s35.58 6.78 49.152 20.348c10.592 10.584 17.032 23.74 19.356 37.452 3.636 21.44-2.804 44.252-19.356 60.796l-186.384 186.276c-13.572 13.568-31.368 20.352-49.156 20.352s-35.58-6.784-49.144-20.352c-6.296-6.288-11.112-13.492-14.488-21.176-11.18-25.456-6.368-56.236 14.488-77.072l186.38-186.276zM1024 407.053v261.164c0 18.744-15.204 33.94-33.952 33.94h-150.372l-154.668 111.584c-15.916 11.484-34.484 17.116-52.96 17.116-23.336 0-46.524-8.984-64.056-26.508l-139.14-139.056c-26.52-26.504-26.52-69.484 0-95.988l8.5-8.496c13.256-13.252 30.636-19.88 48.016-19.88 17.388 0 34.76 6.628 48.024 19.88l43.88 43.86 193.704-230.812c14.44-17.208 34.46-28.112 55.956-31.332 4.42-0.664 8.904-1.008 13.412-1.008 6.476 0 13 0.692 19.472 2.116l137.528 30.268c15.568 3.432 26.656 17.216 26.656 33.152v0zM840.344 261.525c-8.412 0-16.916 0.636-25.288 1.896-41.164 6.164-78.588 27.124-105.356 59.016l-138.956 165.576c-24.796-17.592-54.36-27.076-85.372-27.076-39.496 0-76.632 15.376-104.568 43.292l-8.5 8.492c-27.948 27.932-43.34 65.072-43.34 104.58s15.388 76.648 43.332 104.58l70.044 70c-25.78 14.556-57.812 15.996-85.464 1.988l-192.4-97.464-117.852 47.384c-22.308 8.976-46.624-7.444-46.624-31.484v-319.076c0-14.236 8.884-26.952 22.252-31.856l8.912-3.268c0.616 1.536 1.156 3.088 1.824 4.616 7.504 17.084 18 32.424 31.204 45.608 28.2 28.2 65.744 43.752 105.676 43.752s77.48-15.548 105.716-43.772l186.376-186.268c34.188-34.184 49.764-83.064 41.676-130.76-1.332-7.868-3.288-15.54-5.8-22.984 14.092-0.136 28.328 2.992 41.512 9.62l256.332 128.8c23.476 11.796 39.228 32.056 46.044 54.848-0.46-0.004-0.92-0.040-1.38-0.040z" />
<glyph unicode="&#xe621;" glyph-name="equalizer" data-tags="equalizer" d="M486.3 806.857c0-79.529-64.471-144-144-144s-144 64.471-144 144c0 79.529 64.471 144 144 144s144-64.471 144-144zM944 886.857h-392.468c9.512-24.852 14.768-51.804 14.768-80s-5.256-55.148-14.768-80h392.468c44.184 0 80 35.816 80 80s-35.816 80-80 80zM118.3 806.857c0 28.196 5.26 55.148 14.768 80h-53.068c-44.184 0-80-35.816-80-80s35.816-80 80-80h53.068c-9.508 24.852-14.768 51.804-14.768 80zM825.692 438.857c0-79.529-64.471-144-144-144s-144 64.471-144 144c0 79.529 64.471 144 144 144s144-64.471 144-144zM80.004 518.857h392.468c-9.516-24.852-14.772-51.804-14.772-80s5.256-55.148 14.772-80h-392.468c-44.188 0-80 35.816-80 80s35.812 80 80 80zM905.692 438.857c0 28.196-5.256 55.148-14.764 80h53.068c44.184 0 80-35.816 80-80s-35.816-80-80-80h-53.068c9.508 24.852 14.764 51.804 14.764 80zM486.3 70.857c0-79.529-64.471-144-144-144s-144 64.471-144 144c0 79.529 64.471 144 144 144s144-64.471 144-144zM944 150.857h-392.468c9.512-24.852 14.768-51.804 14.768-80s-5.256-55.148-14.768-80h392.468c44.184 0 80 35.816 80 80s-35.816 80-80 80zM118.3 70.857c0 28.196 5.26 55.148 14.768 80h-53.068c-44.184 0-80-35.816-80-80s35.816-80 80-80h53.068c-9.508 24.852-14.768 51.804-14.768 80z" />
<glyph unicode="&#xe622;" glyph-name="esign" data-tags="esign" d="M543.288 519.085c13.916-10.5 27.608-22.376 40.792-35.548 13.172-13.176 25.052-26.88 35.556-40.788l199.68 199.684c-9.856 14.164-21.516 28.164-34.844 41.496s-27.324 24.992-41.5 34.84l-199.684-199.684zM771.916 747.709l-11.096-11.096c13.916-10.496 27.6-22.38 40.788-35.552 13.18-13.18 25.044-26.876 35.556-40.792l11.096 11.104c21.080 21.076 21.080 55.256 0 76.332-21.076 21.088-55.264 21.088-76.344 0.004zM519.804 495.601l-7.9-7.656v-76.588h76.58l7.768 7.776 5.528 5.756c-9.86 14.172-21.516 28.164-34.84 41.492-13.328 13.332-27.332 24.996-41.504 34.848l-5.632-5.628zM462.88 485.433c-140.576 40.4-179.788 100.56-186.524 112.896-10.584 25.136-23.764 48.164-47.74 48.164-3.072 0-6.212-0.416-9.328-1.244-5.248-1.388-9.54-3.536-13.044-6.24l-2.608-2.248c-15.036-14.44-12.564-40.576-11.232-54.652 3.896-41.164 31.168-103.924 54.76-151.784-22.252 7.208-38.868 17.6-39.016 17.688l-16.5 10.736-34.888-57.68 15.544-10.036c5.56-3.584 55.98-35.060 113.528-35.060 8.584 0 17.020 0.724 25.072 2.14l46.656 8.228-23.376 41.728c-0.34 0.608-22.304 40.076-42.524 84.44 35.852-24.62 87.46-50.964 160.7-72.012l24.308-6.988v67.952l-13.788 3.972zM944 950.857h-864c-44.184 0-80-35.816-80-80v-624c0-44.188 35.816-80 80-80h372v-120h-87.536c-17.944 0-21.992-4.728-35.276-18.672l-72.48-74.108h0.080c-2.992-2.752-4.784-5.976-4.784-9.46 0-9.812 13.7-17.756 30.588-17.756h458.828c16.884 0 30.584 7.944 30.584 17.756 0 3.484-1.796 6.712-4.788 9.452 0.032 0.008 0.056 0.016 0.080 0.016l-72.468 74.1c-12.172 13.416-17.32 18.672-35.28 18.672h-87.548v120h372c44.18 0 80 35.812 80 80v624c0 44.184-35.82 80-80 80zM904 366.857c0-44.188-35.82-80-80-80h-624c-44.184 0-80 35.812-80 80v384c0 44.184 35.816 80 80 80h624c44.18 0 80-35.816 80-80v-384z" />
<glyph unicode="&#xe623;" glyph-name="exit" data-tags="exit" d="M990.68 503.737v0.076l-236.596 185.324c-7 6.044-16.108 9.72-26.084 9.72-22.092 0-40-17.912-40-40v-140h-368c-44.184 0-80-35.816-80-80 0-44.188 35.816-80 80-80h368v-140c0-22.092 17.908-40 40-40 9.976 0 19.080 3.672 26.084 9.712l236.592 185.404c20.156 14.524 33.32 38.14 33.32 64.884s-13.16 50.356-33.316 64.88zM511.756 47.405c-2.608 0-5.164-0.228-7.688-0.548h-304.068c-44.184 0-80 35.812-80 80v624c0 44.184 35.816 80 80 80h310.68c33.136 0 59.996 26.864 59.996 60s-26.86 60-59.996 60h-430.68c-44.184 0-80-35.816-80-80v-864c0-44.188 35.816-80 80-80h370.68c2.612 0 5.168 0.22 7.692 0.548h53.388c33.14 0 60 26.86 60 60-0.004 33.132-26.86 60-60.004 60z" />
<glyph unicode="&#xe624;" glyph-name="export" data-tags="export" d="M512 950.857c-26.744 0-50.356-13.164-64.88-33.32h-0.076l-185.324-236.596c-6.044-7-9.72-16.108-9.72-26.084 0-22.092 17.912-40 40-40h140v-368c0-44.184 35.816-80 80-80 44.188 0 80 35.816 80 80v368h140c22.092 0 40 17.908 40 40 0 9.976-3.672 19.080-9.712 26.084l-185.404 236.596c-14.524 20.156-38.14 33.32-64.884 33.32zM903.452 278.613c0-2.608 0.228-5.164 0.548-7.688v-144.068c0-44.184-35.812-80-80-80h-624c-44.184 0-80 35.816-80 80v150.684c0 33.136-26.864 59.996-60 59.996s-60-26.86-60-59.996v-270.684c0-44.184 35.816-80 80-80h864c44.188 0 80 35.816 80 80v210.68c0 2.612-0.22 5.168-0.548 7.692v53.388c0 33.14-26.86 60-60 60-33.132-0.004-60-26.86-60-60.004z" />
<glyph unicode="&#xe625;" glyph-name="eyeclose" data-tags="eyeclose" d="M651.328 625.145l160.14 240.436c16.4 24.608 14.168 58.436-4.96 75.552-19.132 17.116-47.928 11.044-64.324-13.564l-111.072-166.756c-38.268 10.12-76.96 15.244-116.032 15.244-271.596 0-462.7-245.284-500.424-297.696-9.068-9.456-14.656-22.108-14.656-36.060 0-16.236 7.532-30.744 19.36-40.452 0 0.004 0 0.004 0 0.004 2.352-2.992 4.72-5.896 7.080-8.84l0.22-0.356 0.092-0.036c71.732-89.54 145.984-158.052 222.288-205.44l-116.6-175.052c-16.392-24.608-14.168-58.436 4.964-75.552s47.928-11.048 64.32 13.56l449.604 675.008zM514.592 585.873l-98.404-147.736c-40.396 10.64-70.124 46.524-70.124 89.184 0 51.040 42.548 92.416 95.020 92.416 29.628 0 56.084-13.192 73.508-33.864zM128.604 422.557c-2.856 6.42-4.516 13.468-4.516 20.916 0 7.74 1.772 15.056 4.844 21.684 48.004 56.048 138.232 145.868 253.312 189.464-53.292-38.632-87.812-100.4-87.812-170.020 0-55.224 21.744-105.484 57.332-143.192l-49.060-73.656c-58.68 36.248-116.812 87.852-174.1 154.804zM1016.88 468.737c-2.444 4.18-5.424 8.020-8.908 11.388-70.672 90.104-143.836 159.772-219.044 208.848l-53.668-80.576c54.116-35.456 107.728-84.004 160.608-145.524 2.868-6.436 4.544-13.488 4.544-20.948 0-7.276-1.704-15.352-4.456-21.824-64.888-76.492-207.736-216.028-386.232-216.028-14.012 0-28.012 0.92-42 2.652l-58.14-87.276c33.084-7.548 66.468-11.4 100.136-11.4 273.084 0 464.624 249.012 500.916 299.9 3.268 4.584 5.304 7.592 6 8.636l1.532 2.296c3.7 7.144 5.828 15.188 5.828 23.732 0.004 9.508-2.604 18.412-7.116 26.124zM511.672 272.697c0.216 0 0.432-0.016 0.648-0.016 120.332 0 217.888 94.876 217.888 211.916 0 31.104-6.916 60.628-19.3 87.228l-199.236-299.128z" />
<glyph unicode="&#xe626;" glyph-name="eyeopen" data-tags="eyeopen" d="M1016.88 465.541c-2.444 4.18-5.424 8.020-8.908 11.388-153.996 196.332-319.776 295.928-492.888 295.928-271.596 0-462.7-245.284-500.424-297.696v0c-9.072-9.456-14.66-22.104-14.66-36.056 0-16.236 7.532-30.744 19.36-40.452 0 0.004 0 0.004 0 0.004 2.352-2.992 4.72-5.896 7.080-8.84l0.22-0.356 0.092-0.036c151.228-188.768 313.608-284.568 482.976-284.568 273.084 0 464.624 249.012 500.916 299.9 3.268 4.584 5.304 7.592 6 8.636l1.532 2.296c3.7 7.144 5.828 15.188 5.828 23.732-0.004 9.508-2.612 18.408-7.124 26.12zM536.1 524.125c0-51.040-42.54-92.412-95.016-92.412-52.472 0-95.020 41.372-95.020 92.412s42.548 92.416 95.020 92.416c52.48 0.004 95.016-41.376 95.016-92.416zM895.956 416.905c-64.888-76.492-207.736-216.028-386.232-216.028-129.060 0-257.064 73.488-381.12 218.484-2.856 6.42-4.516 13.468-4.516 20.916 0 7.74 1.772 15.056 4.844 21.68 48.004 56.048 138.232 145.872 253.312 189.468-53.292-38.632-87.812-100.4-87.812-170.016 0-117.044 97.552-211.92 217.888-211.92 120.332 0 217.888 94.876 217.888 211.92 0 71.688-36.636 135.016-92.652 173.368 87.356-31.524 173.768-96.74 258.316-195.096 2.868-6.432 4.544-13.488 4.544-20.948 0-7.284-1.704-15.356-4.46-21.828z" />
<glyph unicode="&#xe627;" glyph-name="faq" data-tags="faq" d="M1023.46 834.985h-100v-817.912h-775.268c-40.136 0-62.984 30.5-62.984 68.128s22.848 68.132 62.984 68.132h712.276v797.524h-724.788c-74.932 0-135.68-56.94-135.68-127.176v-769.644c0-70.244 60.748-127.18 135.68-127.18h888.32v896.824c0 3.816-0.188 7.58-0.54 11.304zM501.044 280.773c-11.94-10.608-25.748-15.924-41.4-15.924-16.196 0-30.328 5.248-42.4 15.732-12.080 10.476-18.112 25.14-18.112 43.984 0 16.72 5.836 30.784 17.516 42.2 11.672 11.412 26.004 17.116 42.996 17.116 16.72 0 30.78-5.708 42.196-17.116 11.412-11.416 17.116-25.48 17.116-42.2 0-18.584-5.968-33.18-17.912-43.792zM289.656 777.793c16.184 25.876 39.812 47.304 70.86 64.288 31.052 16.988 67.276 25.48 108.676 25.48 38.48 0 72.452-7.1 101.912-21.296 29.46-14.204 52.22-33.508 68.276-57.924s24.084-50.956 24.084-79.62c0-22.56-4.58-42.332-13.736-59.316s-20.036-31.644-32.64-43.984c-12.608-12.34-35.232-33.112-67.876-62.304-9.028-8.228-16.256-15.464-21.696-21.692-5.444-6.244-9.492-11.944-12.144-17.12-2.656-5.172-4.716-10.348-6.168-15.524-1.464-5.176-3.652-14.268-6.572-27.272-5.048-27.6-20.836-41.404-47.376-41.404-13.8 0-25.412 4.512-34.832 13.536-9.424 9.024-14.132 22.424-14.132 40.208 0 22.292 3.448 41.604 10.348 57.924 6.896 16.324 16.052 30.656 27.468 42.996 11.412 12.34 26.8 27 46.18 43.988 16.98 14.864 29.256 26.080 36.824 33.644 7.564 7.564 13.928 15.988 19.104 25.276s7.768 19.372 7.768 30.256c0 21.232-7.904 39.144-23.692 53.744-15.792 14.596-36.164 21.896-61.108 21.896-29.196 0-50.692-7.36-64.492-22.088-13.804-14.732-25.476-36.428-35.032-65.092-9.028-29.992-26.144-44.984-51.352-44.984-14.868 0-27.408 5.24-37.62 15.728-10.22 10.476-15.328 21.828-15.328 34.036 0.012 25.196 8.104 50.744 24.296 76.62z" />
<glyph unicode="&#xe628;" glyph-name="fb" data-tags="fb" d="M919.068 945.857h-804.136c-60.716 0-109.932-49.216-109.932-109.932v-804.136c0-60.72 49.216-109.932 109.932-109.932h804.136c60.72 0 109.932 49.216 109.932 109.932v804.136c0 60.716-49.216 109.932-109.932 109.932zM666.216 438.521h-101.884c0-162.78 0-363.188 0-363.188h-150.952c0 0 0 198.416 0 363.188h-71.816v128.34h71.812v83c0 59.492 28.208 152.416 152.312 152.416l111.82-0.428v-124.632c0 0-67.96 0-81.144 0-13.208 0-32.032-6.572-32.032-34.924v-75.42h115.032l-13.148-128.352z" />
<glyph unicode="&#xe629;" glyph-name="folderclose" data-tags="folderclose" d="M917.66 732.821h-478.604c-9.244 55.76-52.368 98.036-104.34 98.036h-228.368c-58.8 0-106.348-53.792-106.348-120.316v-543.524c0-66.368 47.548-120.16 106.348-120.16h811.312c58.664 0 106.34 53.792 106.34 120.16v445.64c0 66.368-47.552 120.164-106.34 120.164v0z" />
<glyph unicode="&#xe62a;" glyph-name="foldermove" data-tags="foldermove" d="M917.66 732.821h-478.604c-9.244 55.76-52.368 98.036-104.34 98.036h-228.368c-58.8 0-106.348-53.792-106.348-120.316v-543.524c0-66.368 47.548-120.16 106.348-120.16h811.312c58.664 0 106.34 53.792 106.34 120.16v445.64c0 66.368-47.552 120.164-106.34 120.164zM870.416 339.909v-0.076l-210.036-164.52c-6.224-5.36-14.3-8.62-23.16-8.62-19.612 0-35.508 15.9-35.508 35.512v124.284h-326.696c-39.224 0-71.020 31.792-71.020 71.020 0 39.224 31.796 71.020 71.020 71.020h326.696v124.288c0 19.608 15.896 35.508 35.508 35.508 8.86 0 16.944-3.264 23.16-8.628l210.036-164.592c17.896-12.896 29.584-33.856 29.584-57.596s-11.688-44.708-29.584-57.6z" />
<glyph unicode="&#xe62b;" glyph-name="folderopen" data-tags="folderopen" d="M941.072 652.761c-14.66 46.584-53.932 79.924-100.184 79.924h-358.608c-9.24 55.836-52.364 98.172-104.34 98.172h-188.364c-58.8 0-106.348-53.868-106.348-120.48v-57.616h857.844zM944.148 126.965c-19.332-66.112-35.816-80.108-80-80.108h-704c-44.184 0-63.332 7.996-80 80.108l-80 344.5c-14.668 59.392 35.816 80.112 80 80.112h864c44.184 0 93.584-17.22 80-80.108l-80-344.504z" />
<glyph unicode="&#xe62c;" glyph-name="forecast" data-tags="forecast" d="M0 136.777v-157.236c0.1-29.072 24.028-52.588 53.508-52.588h68.148c29.476 0 53.408 23.512 53.408 52.48v172.456c-56.824-8.184-115.252-13.332-173.996-15.112h-1.068zM252.168 165.129c-2.132-0.424-4.376-0.848-6.624-1.26v-184.32c0-28.98 23.928-52.488 53.408-52.488h68.148v-0.104c29.476 0 53.404 23.512 53.404 52.48v230.408c-28.308-9.56-57.68-18.264-87.256-26.036-26.496-6.932-53.836-13.216-81.080-18.68zM503.812 241.325c-4.268-1.776-8.652-3.568-13.028-5.356v-256.424c0-28.98 23.92-52.488 53.404-52.488h68.14v-0.1c29.476 0 53.408 23.512 53.408 52.48v346.808c-5.132-3.36-10.252-6.612-15.492-9.756-45.18-27.924-94.416-53.224-146.432-75.164zM757.908 394.677c-7.056-6.080-14.312-12.068-21.788-18.048v-397.296c0-28.968 23.92-52.476 53.408-52.476h68.14c29.476 0.096 53.4 23.616 53.4 52.584v606.492c-10.78-21.516-23.28-42.716-37.384-63.4-31.084-45.452-69.956-88.488-115.776-127.856zM0 209.841c666.408 44.236 873.66 456.108 914.028 555.016h109.972l-171.828 186-186.436-186h114.404c-63.052-324.792-780.14-555.016-780.14-555.016z" />
<glyph unicode="&#xe62d;" glyph-name="forward" data-tags="forward" d="M1024 438.857c0 26.744-13.164 50.356-33.32 64.88v0.076l-236.596 185.324c-7 6.044-16.108 9.72-26.084 9.72-22.092 0-40-17.912-40-40v-140h-608c-44.184 0-80-35.816-80-80 0-44.188 35.816-80 80-80h608v-140c0-22.092 17.908-40 40-40 9.976 0 19.080 3.672 26.084 9.712l236.592 185.404c20.16 14.524 33.324 38.14 33.324 64.884z" />
<glyph unicode="&#xe62e;" glyph-name="googleplus" data-tags="googleplus" d="M393.232 357.201c-82.892 0.9-153.088-52.252-153.088-114.064 0-62.988 59.888-115.392 142.668-115.392 116.516 0 157.084 49.172 157.084 112.28 0 7.572-0.924 14.996-2.648 22.212-9.14 35.612-45.344 55.144-90.384 86.428-16.3 5.3-34.312 8.396-53.632 8.536zM369.82 759.573c-55.52 1.652-92.86-54.252-83.2-127.2 9.56-73.092 62.368-124.040 117.996-125.756 55.584-1.648 87.556 45.38 78.004 118.4-9.592 72.952-57.184 132.836-112.8 134.556zM914.068 950.857h-804.136c-60.716 0-109.932-49.216-109.932-109.932v-804.136c0-60.716 49.216-109.932 109.932-109.932h804.136c60.72 0 109.932 49.216 109.932 109.932v804.136c0 60.716-49.216 109.932-109.932 109.932zM569.52 628.373c0-46.328-25.796-83.776-62.056-112.124-35.484-27.712-42.168-39.332-42.168-62.848 0-20.096 42.344-50.040 61.8-64.6 67.752-50.876 81.468-82.868 81.468-146.484 0-79.376-85.456-158.244-224.488-158.244-122.028 0-224.976 49.552-224.976 128.992 0 80.484 85.42 164.476 207.412 164.476 13.296 0 25.48 0.352 38.068 0.352-16.692 16.164-30.16 30.244-30.16 54.664 0 14.692 4.58 28.548 11.124 41.008-6.608-0.42-13.36-0.84-20.328-0.84-100.296 0-158.624 70.416-158.624 158.668 0 86.436 88.884 165.028 195.408 165.028 54.836 0 209.94 0 209.94 0l-46.9-49.268h-55.152c38.864-22.268 59.632-68.112 59.632-118.78zM870.952 641.393h-96.86v-96.792h-48.512v96.792h-96.86v48.428h96.864v96.868h48.512v-96.872h96.86v-48.424z" />
<glyph unicode="&#xe62f;" glyph-name="graphview" data-tags="graphview" d="M120 750.073h160v-823.216h-160v823.216zM432 550.073h160v-623.216h-160v623.216zM744 950.857h160v-1024h-160v1024z" />
<glyph unicode="&#xe630;" glyph-name="grid" data-tags="grid" d="M452 578.857c0-44.184-35.816-80-80-80h-292c-44.184 0-80 35.816-80 80v292c0 44.184 35.816 80 80 80h292c44.184 0 80-35.816 80-80v-292zM1024 578.857c0-44.184-35.816-80-80-80h-292c-44.184 0-80 35.816-80 80v292c0 44.184 35.816 80 80 80h292c44.184 0 80-35.816 80-80v-292zM452 6.857c0-44.184-35.816-80-80-80h-292c-44.184 0-80 35.816-80 80v292c0 44.184 35.816 80 80 80h292c44.184 0 80-35.816 80-80v-292zM1024 6.857c0-44.184-35.816-80-80-80h-292c-44.184 0-80 35.816-80 80v292c0 44.184 35.816 80 80 80h292c44.184 0 80-35.816 80-80v-292z" />
<glyph unicode="&#xe631;" glyph-name="help" data-tags="help" d="M512 950.857c-282.768 0-512-229.228-512-512 0-282.764 229.232-512 512-512 282.772 0 512 229.232 512 512 0 282.772-229.232 512-512 512zM554.892 104.605c-13.98-12.42-30.144-18.648-48.484-18.648-18.96 0-35.508 6.14-49.648 18.416-14.144 12.276-21.208 29.444-21.208 51.512 0 19.584 6.832 36.052 20.512 49.42 13.668 13.36 30.452 20.044 50.344 20.044 19.584 0 36.048-6.692 49.416-20.044 13.364-13.372 20.044-29.84 20.044-49.42 0.004-21.756-6.988-38.844-20.976-51.28zM729.012 536.293c-10.724-19.896-23.472-37.068-38.232-51.512-14.76-14.452-41.256-38.776-79.484-72.956-10.564-9.636-19.040-18.104-25.408-25.408-6.372-7.308-11.112-13.984-14.22-20.048-3.112-6.056-5.524-12.12-7.228-18.184-1.72-6.052-4.28-16.708-7.692-31.924-5.912-32.332-24.404-48.488-55.48-48.488-16.168 0-29.76 5.276-40.788 15.856-11.032 10.56-16.544 26.252-16.544 47.084 0 26.1 4.036 48.716 12.12 67.824 8.072 19.112 18.796 35.9 32.164 50.348 13.36 14.452 31.38 31.62 54.080 51.512 19.884 17.404 34.256 30.536 43.116 39.392s16.316 18.72 22.384 29.604c6.052 10.872 9.096 22.68 9.096 35.428 0 24.86-9.256 45.84-27.744 62.932-18.496 17.092-42.348 25.64-71.56 25.64-34.192 0-59.36-8.624-75.52-25.872-16.168-17.244-29.832-42.652-41.024-76.22-10.568-35.12-30.612-52.676-60.136-52.676-17.408 0-32.092 6.136-44.056 18.416-11.968 12.272-17.948 25.556-17.948 39.86 0 29.52 9.472 59.436 28.436 89.74 18.952 30.296 46.616 55.396 82.976 75.284 36.364 19.888 78.788 29.832 127.264 29.832 45.064 0 84.848-8.316 119.348-24.936 34.504-16.632 61.14-39.244 79.94-67.832 18.812-28.592 28.208-59.668 28.208-93.232 0.012-26.428-5.344-49.58-16.068-69.464z" />
<glyph unicode="&#xe632;" glyph-name="helpdesk" data-tags="helpdesk" d="M981.788 757.853l-86.908 49.356c-22.66-40.084-73.464-54.16-113.456-31.452-39.992 22.716-54.040 73.628-31.384 113.712l-86.896 49.352c-13.768 7.824-28.816 11.184-43.564 10.72 35.356-33.308 55.296-82.244 49.672-134.204l-7.316-67.6 165.356-93.912c39.996-22.712 54.044-73.616 31.38-113.708l-217.5-384.66c-10.82-19.14-28.080-32.268-47.488-38.376l-4.66-43.052c-6.092-56.272-40.524-102.992-88.148-126.556l17.188-9.76c39.992-22.72 90.788-8.636 113.452 31.448l381.648 674.98c22.668 40.088 8.612 91-31.376 113.712zM713.836 622.377l-28.968 16.448c-10.672 6.064-22.112 9.424-33.584 10.452l-41.056-379.348 134.992 238.74c22.66 40.084 8.612 90.992-31.384 113.708zM518.812 912.337l-95.436 10.376c-4.764-44.020-44.244-75.836-88.164-71.064-43.92 4.776-75.668 44.336-70.908 88.36l-95.44 10.376c-43.92 4.776-83.396-27.040-88.156-71.064l-80.236-741.3c-4.764-44.024 26.98-83.584 70.908-88.356l95.436-10.38c4.764 44.020 44.244 75.84 88.164 71.064 43.92-4.772 75.672-44.336 70.908-88.356l95.44-10.376c43.924-4.776 83.396 27.040 88.16 71.064l80.232 741.3c4.764 44.024-26.984 83.58-70.908 88.356zM447.208 250.749c-4.76-44.020-44.236-75.836-88.16-71.064l-190.88 20.752c-43.928 4.776-75.672 44.332-70.908 88.356l45.724 422.46c4.76 44.024 44.236 75.84 88.16 71.064l190.884-20.752c43.924-4.776 75.668-44.332 70.908-88.36l-45.728-422.456zM376.3 339.105c-4.76-44.024-44.236-75.84-88.16-71.068l-31.812 3.456c-43.924 4.776-75.672 44.332-70.908 88.356l28.468 263.044c4.764 44.024 44.236 75.84 88.16 71.064l31.812-3.456c43.928-4.776 75.672-44.336 70.912-88.36l-28.472-263.036z" />
<glyph unicode="&#xe633;" glyph-name="home" data-tags="home" d="M1016.068 488.633c-9.764-19.844-26.764-30.856-44.016-30.856-9.392 0-18.908 3.2-27.532 9.916l-432.456 340.38-432.504-340.38c-24.356-19.188-56.436-9.752-71.676 20.94-15.224 30.696-7.724 70.98 16.636 90.164l460 362.12c16.888 13.252 38.204 13.252 55.040 0l460.016-362.12c24.36-19.184 31.72-59.468 16.492-90.164v0zM848.864 453.301l-309.304 243.32c-16.836 13.268-38.152 13.268-55.040 0l-309.176-243.32c-15.192-11.988-24.452-32.928-24.452-55.472v-405.424c0-36.288 23.312-65.548 52-65.548h170.628c28.668 0 52.028 29.256 52.028 65.548v184.488c0 60.268 38.804 109.192 86.52 109.192 47.808 0 86.628-49.084 86.628-109.192v-184.488c0-36.128 23.344-65.548 52.016-65.548h170.632c28.664 0 51.884 29.416 51.884 65.548v405.424c-0.004 22.544-9.26 43.644-24.364 55.472v0z" />
<glyph unicode="&#xe634;" glyph-name="image" data-tags="image" d="M404.824 648.621c0-54.236-43.984-98.056-98.016-98.056-54.192 0-98.172 43.82-98.172 98.056 0 54.232 43.98 97.976 98.172 97.976 54.036 0 98.016-43.744 98.016-97.976v0zM325.656 415.985l-92.048-108.42c-22.932-26.94-12.724-49.088 22.776-49.088h526.848c35.34 0 50.26 25.288 32.988 56.156l-158.964 284.196c-17.12 30.752-46.652 31.576-65.504 1.572l-92.364-147.656c-18.692-30-56.236-39.464-83.096-21.084-27.016 18.368-67.7 11.344-90.636-15.676v0zM944 950.857h-864c-44.184 0-80-35.816-80-80v-864c0-44.18 35.816-80 80-80h864c44.18 0 80 35.82 80 80v864c0 44.184-35.82 80-80 80zM904.404 166.737h-784v584.12c0 44.184 35.816 80 80 80h624c44.184 0 80-35.816 80-80v-584.12z" />
<glyph unicode="&#xe635;" glyph-name="import" data-tags="import" d="M512 166.857c-26.744 0-50.356 13.164-64.88 33.32h-0.076l-185.324 236.596c-6.044 7-9.72 16.108-9.72 26.084 0 22.092 17.912 40 40 40h140v368c0 44.184 35.816 80 80 80 44.188 0 80-35.816 80-80v-368h140c22.092 0 40-17.908 40-40 0-9.976-3.672-19.080-9.712-26.084l-185.404-236.592c-14.524-20.16-38.14-33.324-64.884-33.324zM903.452 278.613c0-2.608 0.228-5.164 0.548-7.688v-144.068c0-44.184-35.812-80-80-80h-624c-44.184 0-80 35.816-80 80v150.684c0 33.136-26.864 59.996-60 59.996s-60-26.86-60-59.996v-270.684c0-44.184 35.816-80 80-80h864c44.188 0 80 35.816 80 80v210.68c0 2.612-0.22 5.168-0.548 7.692v53.388c0 33.14-26.86 60-60 60-33.132-0.004-60-26.86-60-60.004z" />
<glyph unicode="&#xe636;" glyph-name="insights" data-tags="insights" d="M964 46.857h-844v844c0 33.136-26.864 60-60 60s-60-26.864-60-60v-904c0-33.136 26.864-60 60-60h904c33.14 0 60 26.864 60 60s-26.86 60-60 60zM1023.98 778.717c0 59.664-48.368 108.032-108.036 108.032-59.664 0-108.032-48.368-108.032-108.032 0-32.416 14.296-61.476 36.908-81.28l-92.276-233.984c-15.168-1.1-30.088-5.336-43.684-12.696l-104.396 86.144c12.824 40.732 0.696 86.968-34.276 115.82-20.372 16.812-45.068 24.884-69.56 24.692-37.976 0.252-74.952-19.544-94.924-54.968-22.264-39.488-16.98-86.996 9.628-120.4l-66.476-117.9c-42.356 5.476-85.74-14.592-108.004-54.072-29.304-51.976-10.92-117.872 41.052-147.164 51.964-29.304 117.848-10.928 147.16 41.032 22.264 39.492 16.98 87.008-9.624 120.412l66.472 117.9c4.268-0.552 8.544-0.776 12.812-0.816 0.604-0.016 1.204-0.028 1.808-0.032 0.896 0.008 1.788 0.028 2.68 0.056 17.212 0.3 34.296 4.616 49.676 12.94l104.4-86.14c-12.836-40.74-0.704-86.96 34.264-115.828 46.016-37.956 114.116-31.432 152.084 14.584 37.768 45.772 31.504 113.384-13.852 151.456l91.636 232.352c57.128 2.852 102.56 50.064 102.56 107.892z" />
<glyph unicode="&#xe637;" glyph-name="invoice" data-tags="invoice" d="M824 950.857h-624c-44.184 0-80-35.816-80-80v-864c0-44.184 35.816-80 80-80h624c44.184 0 80 35.816 80 80v864c0 44.184-35.816 80-80 80zM402 734.857c-27.612 0-50 22.388-50 50s22.388 50 50 50h220c27.612 0 50-22.388 50-50s-22.388-50-50-50h-58v-192h58c27.612 0 50-22.388 50-50s-22.388-50-50-50h-220c-27.612 0-50 22.388-50 50s22.388 50 50 50h58v192h-58zM724 50.849h-424c-33.132 0-60 22.384-60 50 0 27.608 26.868 50 60 50h424c33.14 0 60-22.392 60-50 0-27.616-26.86-50-60-50zM724 234.849h-424c-33.132 0-60 22.392-60 50 0 27.616 26.868 50 60 50h424c33.14 0 60-22.384 60-50 0-27.608-26.86-50-60-50z" />
<glyph unicode="&#xe638;" glyph-name="invoicerecurring" data-tags="invoicerecurring" d="M765.336 442.561c-142.492 0-258-115.516-258-258.024 0-142.512 115.508-258.028 258-258.028 142.484 0 258 115.516 258 258.028 0 142.508-115.516 258.024-258 258.024zM822.664 133.725c0-22.092-17.916-40.004-40-40.004h-136c-22.084 0-40 17.912-40 40.004 0 22.096 17.916 40.004 40 40.004h96v136.020c0 22.088 17.916 40 40 40s40-17.912 40-40v-176.024zM474.58 50.921h-293.912c-33.132 0-60 22.376-60 49.992 0 27.608 26.868 50 60 50h266.436c-1.156 11.056-1.768 22.26-1.768 33.62 0 17.144 1.384 33.956 3.98 50.372h-268.648c-33.132 0-60 22.392-60 49.996 0 27.616 26.868 49.996 60 49.996h302.18c53.832 100.924 160.116 169.64 282.492 169.64 6.492 0 12.916-0.252 19.328-0.636v366.964c0 44.18-35.812 79.992-80 79.992h-624c-44.184 0-80-35.812-80-79.992v-863.936c0-44.18 35.816-79.992 80-79.992h494.864c-43.304 31.956-78.212 74.576-100.952 123.984zM282.668 734.873c-27.612 0-50 22.384-50 49.996s22.388 49.996 50 49.996h220c27.604 0 50-22.384 50-49.996s-22.396-49.996-50-49.996h-58v-191.984h58c27.604 0 50-22.384 50-49.996s-22.396-49.996-50-49.996h-220c-27.612 0-50 22.384-50 49.996s22.388 49.996 50 49.996h58v191.984h-58z" />
<glyph unicode="&#xe639;" glyph-name="leads" data-tags="leads" d="M944 830.857h-864c-44.184 0-80-35.816-80-80v-624c0-44.184 35.816-80 80-80h213.84v40h-40c-22.092 0-40 17.912-40 40s17.908 40 40 40h120c22.092 0 40-17.912 40-40s-17.908-40-40-40h-40v-40h353.988v40h-40c-22.092 0-40 17.912-40 40s17.908 40 40 40h120c22.092 0 40-17.912 40-40s-17.908-40-40-40h-40v-40h216.172c44.184 0 80 35.816 80 80v624c0 44.184-35.816 80-80 80zM314.18 710.389c53.948 0 97.5-43.552 97.5-97.5s-43.552-97.5-97.5-97.5-97.496 43.548-97.496 97.5c0 53.952 43.544 97.5 97.496 97.5zM509.18 360.525v-9.656c0-16.832-13.64-30.468-30.468-30.468h-329.056c-16.828 0-30.468 13.636-30.468 30.468v11.7h0.052c2.188 78.956 130.5 122.356 194.94 122.356 64.448 0 192.76-43.4 194.948-122.356h0.052v-2.044zM864.060 319.581h-200c-22.092 0-40 17.908-40 40s17.908 40 40 40h200c22.092 0 40-17.908 40-40s-17.904-40-40-40zM864.060 474.581h-200c-22.092 0-40 17.908-40 40s17.908 40 40 40h200c22.092 0 40-17.908 40-40s-17.904-40-40-40zM864.060 629.581h-200c-22.092 0-40 17.908-40 40s17.908 40 40 40h200c22.092 0 40-17.908 40-40s-17.904-40-40-40z" />
<glyph unicode="&#xe63a;" glyph-name="link" data-tags="link" d="M342.776 93.105c-22.52-22.328-51.308-35.548-81.020-37.224-29.82-1.664-55.984 23.88-74.828 43.156l-17.3 17.816c-39.336 40.572-68.96 96 12.14 172.956l222.712 220.612-93.304 86.548-225.76-224.088c-104.62-103.94-114.516-266.024-22.048-361.304l17.344-17.864c42.016-43.112 99.908-66.856 163.004-66.856 5 0 10.092 0.148 15.164 0.436 66.744 4.008 130.768 33.408 180.228 82.732l229.172 227.096-85.4 86.008-240.104-230.024zM960.556 866.941l-17.42 17.944c-41.88 42.548-99.76 65.972-163.036 65.972-5.088 0-10.28-0.152-15.46-0.452-66.752-4-130.776-33.404-180.228-82.728l-228.78-226.688 93.416-86.020 228.088 226.448c22.532 22.324 51.308 35.54 81.028 37.22 29.844 1.648 59.972-19.88 78.824-39.164l17.3-17.82c39.344-40.564 41.86-119.008-4.144-164.96l-222.76-228.664 85.416-86.024 225.7 224.036c104.744 104.052 114.616 265.972 22.056 360.9zM714.64 598.665c0 22.092-17.916 40-40 40-11.016 0-20.992-4.456-28.228-11.664l-0.088 0.088-303.28-303.28c-9.232-7.336-15.156-18.564-15.156-31.168 0-22.092 18.164-40.012 40.564-40.012 9.572 0 18.352 3.288 25.288 8.752l0.008-0.008 0.064 0.068c2.428 1.916 4.612 4.116 6.536 6.536l300.636 300.636c8.356 7.336 13.656 18.064 13.656 30.052z" />
<glyph unicode="&#xe63b;" glyph-name="linkopen" data-tags="linkopen" d="M271.501 710.218l-31.112-31.112-84.852 84.852 31.112 31.112 84.852-84.852zM214.528 644.27l-11.387-42.5-91.946 24.636 11.387 42.5 91.946-24.636zM281.873 828.352l42.496 11.386 24.636-91.946-42.496-11.386-24.636 91.946zM751.225 168.555l31.118 31.122 84.875-84.863-31.118-31.122-84.875 84.863zM808.431 234.674l11.392 42.5 91.95-24.646-11.392-42.5-91.95 24.646zM741.175 50.208l-42.5-11.392-24.646 91.95 42.5 11.392 24.646-91.95zM342.776 93.105c-22.52-22.328-51.308-35.548-81.020-37.224-29.82-1.664-55.984 23.88-74.828 43.156l-17.3 17.816c-39.336 40.572-68.96 96 12.14 172.956l222.712 220.612-93.304 86.548-225.76-224.088c-104.62-103.94-114.516-266.024-22.048-361.304l17.344-17.864c42.016-43.112 99.908-66.856 163.004-66.856 5 0 10.092 0.148 15.164 0.436 66.744 4.008 130.768 33.408 180.228 82.732l229.172 227.096-85.4 86.008-240.104-230.024zM960.556 866.941l-17.42 17.944c-41.88 42.548-99.76 65.972-163.036 65.972-5.088 0-10.28-0.152-15.46-0.452-66.752-4-130.776-33.404-180.228-82.728l-228.78-226.688 93.416-86.020 228.088 226.448c22.532 22.324 51.308 35.54 81.028 37.22 29.844 1.648 59.972-19.88 78.824-39.164l17.3-17.82c39.344-40.564 41.86-119.008-4.144-164.96l-222.76-228.664 85.416-86.024 225.7 224.036c104.744 104.052 114.616 265.972 22.056 360.9z" />
<glyph unicode="&#xe63c;" glyph-name="list" data-tags="list" d="M159.796 750.857c0-44.183-35.817-80-80-80s-80 35.817-80 80c0 44.183 35.817 80 80 80s80-35.817 80-80zM1023.796 749.833c0-44.188-35.816-80-80-80h-584c-44.184 0-80 35.812-80 80v0c0 44.18 35.816 80 80 80h584c44.184 0 80-35.82 80-80v0zM160.204 439.373c0-44.183-35.817-80-80-80s-80 35.817-80 80c0 44.183 35.817 80 80 80s80-35.817 80-80zM1024.204 438.345c0-44.184-35.816-80-80-80h-584c-44.184 0-80 35.816-80 80v0c0 44.184 35.816 80 80 80h584c44.184 0 80-35.816 80-80v0zM160.204 127.881c0-44.183-35.817-80-80-80s-80 35.817-80 80c0 44.183 35.817 80 80 80s80-35.817 80-80zM1024.204 126.857c0-44.184-35.816-80-80-80h-584c-44.184 0-80 35.816-80 80v0c0 44.184 35.816 80 80 80h584c44.184 0 80-35.816 80-80v0z" />
<glyph unicode="&#xe63d;" glyph-name="lock" data-tags="lock" d="M793.796 557.529h-563.596c-26.28 0-47.784-22.028-47.784-48.956v-532.756c0-26.924 21.504-48.96 47.784-48.96h563.596c26.288 0 47.788 22.036 47.788 48.96v532.756c0 26.928-21.5 48.956-47.788 48.956zM598.184 96.433h-172.368l57.632 119.992c-33.536 12.084-57.632 44.74-57.632 83.244 0 48.76 38.584 88.296 86.18 88.296s86.184-39.532 86.184-88.296c0-38.504-24.084-71.152-57.624-83.244l57.628-119.992zM706.084 950.857h-388.168c-39.584 0-71.788-32.996-71.788-73.552v-379.052h131.404v317.972h268.928v-317.972h131.408v379.052c0 40.556-32.196 73.552-71.784 73.552z" />
<glyph unicode="&#xe63e;" glyph-name="lockopen" data-tags="lockopen" d="M1024 877.305c0 40.556-33.1 73.552-73.796 73.552h-399.072c-40.696 0-73.804-32.996-73.804-73.552v-319.776h-428.2c-27.020 0-49.128-22.028-49.128-48.956v-532.756c0-26.924 22.108-48.96 49.128-48.96h579.424c27.024 0 49.124 22.036 49.124 48.96v532.756c0 26.928-22.1 48.956-49.124 48.956h-16.132v258.696h276.48v-317.972h0.188c-0.068-1.236-0.188-2.46-0.188-3.712 0-38.264 30.248-69.288 67.552-69.288s67.548 31.020 67.548 69.288c0 1.252-0.12 2.476-0.184 3.712h0.184v379.052zM250.24 96.433l59.252 119.992c-34.48 12.084-59.252 44.74-59.252 83.244 0 48.76 39.668 88.296 88.6 88.296 48.936 0 88.604-39.532 88.604-88.296 0-38.504-24.764-71.152-59.248-83.244l59.252-119.992h-177.208z" />
<glyph unicode="&#xe63f;" glyph-name="logout" data-tags="logout" d="M869.54 581.697c-42.972 66.708-103.472 119.972-174.956 154.028-1.864 0.888-4.048 0.76-5.784-0.34-1.744-1.1-2.796-3.016-2.796-5.076v-139.888c0-1.88 0.884-3.652 2.38-4.784 74.112-56.060 116.62-141.268 116.62-233.78 0-161.564-131.436-293-293-293-161.56 0-293 131.436-293 293 0 92.512 42.504 177.72 116.62 233.78 1.5 1.136 2.38 2.904 2.38 4.784v139.888c0 2.060-1.056 3.976-2.796 5.076-1.744 1.1-3.924 1.232-5.784 0.34-71.484-34.060-131.984-87.324-174.96-154.028-44.132-68.504-67.46-147.98-67.46-229.84-0.004-234.348 190.652-425 424.996-425 234.348 0 425 190.652 425 425 0 81.86-23.328 161.336-67.46 229.84zM582 290.857c0-33.136-31.34-60-70-60v0c-38.66 0-70 26.864-70 60v600c0 33.136 31.34 60 70 60v0c38.66 0 70-26.864 70-60v-600z" />
<glyph unicode="&#xe640;" glyph-name="mailmanager" data-tags="mailmanager" d="M432.34 470.209c6.688 0 12.916 1.852 18.148 5.024l413.508 290.224v1.716c0 35.176-30.224 63.688-67.5 63.688h-728.996c-37.272-0.004-67.5-28.516-67.5-63.692v-1.236l414.184-290.704c5.24-3.168 11.468-5.020 18.156-5.020zM493.856 426.285l-40.624-28.516c-0.68-0.508-1.36-1.008-2.080-1.456-5.376-3.412-11.844-5.404-18.812-5.404-6.96 0-13.436 1.992-18.804 5.404-0.72 0.448-1.408 0.948-2.080 1.456l-115.032 80.744-296.424-208.12c0-35.168 30.228-63.692 67.5-63.692h417.112c-10.72 30.752-16.616 63.752-16.616 98.164 0 43.256 9.288 84.328 25.86 121.42zM863.996 586.365v99.716l-119.688-84.008c7.172 0.516 14.384 0.872 21.688 0.872 34.344-0.004 67.292-5.884 98-16.58zM0 686.557v-336.72l239.884 168.36zM992.4 356.653h-24.704c-6.68 0-14.46 6.056-17.016 13.2-2.352 6.652-5.108 13.248-8.212 19.644-3.292 6.804-2.080 16.54 2.632 21.264l17.584 17.588c12.324 12.304 12.324 32.36 0 44.68l-28.536 28.544c-5.964 5.96-13.904 9.236-22.336 9.236-8.444 0-16.372-3.272-22.348-9.236l-17.572-17.588c-2.828-2.828-7.528-4.504-12.584-4.504-3.156 0-6.152 0.632-8.692 1.864-6.392 3.084-13.008 5.864-19.66 8.228-7.16 2.536-13.216 10.34-13.216 17.024v24.7c0 17.416-14.156 31.588-31.584 31.588h-40.356c-17.416 0-31.588-14.176-31.588-31.588v-24.7c0-6.684-6.048-14.488-13.212-17.024-6.636-2.364-13.252-5.124-19.644-8.208-2.48-1.2-5.568-1.872-8.672-1.872-5.076 0-9.784 1.7-12.612 4.528l-17.552 17.556c-5.964 5.96-13.904 9.252-22.332 9.252-8.452 0-16.388-3.292-22.352-9.252l-28.556-28.56c-5.98-5.964-9.252-13.884-9.272-22.336 0-8.428 3.292-16.368 9.252-22.328l17.584-17.592c4.736-4.728 5.944-14.46 2.66-21.26-3.084-6.404-5.864-12.992-8.216-19.644-2.54-7.144-10.336-13.2-17.016-13.2h-24.704c-17.416 0-31.584-14.172-31.584-31.588v-40.38c0-17.416 14.172-31.588 31.584-31.588h24.704c6.68 0 14.476-6.036 17.016-13.2 2.352-6.628 5.124-13.236 8.216-19.62 3.284-6.812 2.076-16.568-2.66-21.288l-17.584-17.588c-12.296-12.308-12.296-32.36 0-44.668l28.58-28.584c5.98-5.964 13.9-9.252 22.352-9.252 8.428 0 16.368 3.288 22.332 9.252l17.584 17.584c2.828 2.824 7.54 4.524 12.596 4.524 3.148 0 6.152-0.656 8.676-1.868 6.392-3.084 13.008-5.868 19.636-8.212 7.148-2.54 13.2-10.336 13.2-17.024v-24.704c0-17.416 14.172-31.584 31.584-31.584h40.364c17.432 0 31.604 14.176 31.604 31.584v24.704c0 6.688 6.036 14.484 13.196 17.024 6.648 2.344 13.264 5.124 19.656 8.212 2.468 1.196 5.56 1.852 8.656 1.852 5.080 0 9.788-1.684 12.616-4.508l17.584-17.584c5.96-5.964 13.884-9.252 22.328-9.252 8.428 0 16.372 3.288 22.336 9.252l28.556 28.576c12.304 12.324 12.304 32.364 0 44.684l-17.572 17.576c-4.736 4.732-5.944 14.48-2.656 21.284 3.1 6.376 5.864 12.992 8.212 19.648 2.54 7.144 10.336 13.196 17.020 13.196h24.7c17.416 0 31.584 14.172 31.584 31.588v40.364c0 17.412-14.176 31.584-31.584 31.584v0zM858.572 304.873c0-51.048-41.532-92.592-92.572-92.592-51.064 0-92.584 41.552-92.584 92.592 0 51.048 41.532 92.592 92.584 92.592 51.040 0 92.572-41.528 92.572-92.592v0z" />
<glyph unicode="&#xe641;" glyph-name="mandatory" data-tags="mandatory" d="M580.392 502.941c53.392 25.892 104.32 51.784 152.796 77.672 48.464 25.892 87.072 44.868 115.836 56.96 28.744 12.076 51.752 18.124 69.004 18.124 28.748 0 53.604-10.156 74.552-30.416 20.952-20.292 31.42-45.536 31.42-75.736 0-17.272-5.14-35.176-15.4-53.72-10.288-18.572-21.164-30.424-32.656-35.604-105.976-44.016-222.632-75.956-349.96-95.8 22.992-22.448 51.332-52.228 85.024-89.324 33.68-37.116 51.336-56.96 52.988-59.552 12.324-18.124 29.576-40.576 51.752-67.316 22.18-26.76 37.584-47.7 46.208-62.788 8.628-15.108 12.94-33.448 12.94-55.016 0-27.628-9.86-51.784-29.576-72.496s-45.184-31.072-76.396-31.072c-31.232 0-66.348 25.448-105.356 76.384-39.032 50.916-89.34 142.4-150.952 274.444-62.44-119.1-104.336-197.64-125.692-235.608-21.372-37.984-41.896-66.668-61.612-86.092-19.716-19.416-42.316-29.128-67.772-29.128-30.4 0-55.664 11-75.784 33.016-20.136 22-30.188 45.508-30.188 70.552 0 23.3 4.1 40.98 12.324 53.076 75.572 107.876 154.432 201.512 236.588 280.92-69.004 11.212-130.616 23.728-184.836 37.544-54.22 13.796-111.732 34.084-172.516 60.844-9.86 5.176-19.524 17.028-28.96 35.604-9.452 18.54-14.168 35.596-14.168 51.128 0 30.2 10.476 55.444 31.416 75.736 20.956 20.264 44.98 30.416 72.088 30.416 19.72 0 44.364-6.272 73.936-18.772 29.576-12.52 67.16-30.644 112.748-54.372 45.596-23.748 97.548-50.28 155.884-79.612-10.684 54.372-19.524 116.712-26.492 187.068-6.992 70.328-10.476 118.452-10.476 144.34 0 31.92 9.644 59.328 28.956 82.2 19.296 22.864 44.156 34.312 74.556 34.312 29.576 0 54.008-11.448 73.316-34.308 19.292-22.876 28.96-53.296 28.96-91.264 0-10.356-1.448-30.868-4.316-61.496-2.888-30.644-6.988-67.76-12.32-111.332-5.348-43.588-11.3-93.428-17.864-149.516z" />
<glyph unicode="&#xe642;" glyph-name="marketinglists" data-tags="marketinglists" d="M944 6.869v744.060c0 44.184-35.824 80.008-80.032 80.008v-760.516c-0.992-34-27.772-61.452-61.504-63.556h-642.78c0-44.188 35.832-80.008 80.028-80.008h624.256c44.208 0.004 80.032 35.824 80.032 80.012zM712.164 950.857h-560.328c-39.672 0-71.836-35.816-71.836-80v-704c0-44.184 32.164-80 71.836-80h560.328c39.676 0 71.836 35.816 71.836 80v704c0 44.184-32.16 80-71.836 80zM409.024 887.917v-201.128l-142.236 142.204c36.42 36.42 86.704 58.924 142.236 58.924zM270.824 750.921l193.296-193.256v271.488c95.796-15.388 169.004-98.42 169.004-198.54 0-111.056-90.072-201.132-201.124-201.132-111.060 0-201.132 90.072-201.132 201.132 0 45.112 14.856 86.756 39.956 120.308zM671.332 188.857h-477.332c-17.672 0-32 14.328-32 32s14.328 32 32 32h477.332c17.672 0 32-14.328 32-32s-14.328-32-32-32zM671.332 308.857h-477.332c-17.672 0-32 14.328-32 32s14.328 32 32 32h477.332c17.672 0 32-14.328 32-32s-14.328-32-32-32z" />
<glyph unicode="&#xe643;" glyph-name="massedit" data-tags="massedit" d="M681.672 879.117c1.712-0.988 3.428-1.972 5.132-2.984-1.664 1.072-3.384 2.064-5.132 2.984zM261.764 866.689h466.292v16.976c0 37.108-28.212 67.192-63.008 67.192h-482.036c-34.8 0-63.012-30.084-63.012-67.192v-705.516c0-37.112 28.212-67.192 63.012-67.192h15.748v688.536c-0.008 37.108 28.2 67.196 63.004 67.196zM831.772 772.869h-482.024c-34.8 0-63.012-30.084-63.012-67.196v-705.52c0-34.744 24.724-63.312 56.424-66.832v140.524l36.224 37.7 344.732 367.632c24.648 26.296 57.18 41.080 91.908 41.96 1.084 0.024 2.164 0.088 3.256 0.088 27.32 0 53.408-8.652 75.5-24.7v209.148c0 37.112-28.208 67.196-63.008 67.196zM455.34 87.533c19.46-15.664 38.6-33.38 57.048-53.028 18.424-19.656 35.040-40.084 49.728-60.844l279.28 297.836c-13.768 21.116-30.088 42.008-48.728 61.892-18.648 19.892-38.228 37.268-58.048 51.968l-279.28-297.824zM775.108 428.533l-15.516-16.552c19.452-15.656 38.596-33.384 57.040-53.032 18.428-19.648 35.040-40.084 49.728-60.844l15.532 16.568c29.484 31.432 29.484 82.416 0 113.86-29.492 31.44-77.308 31.44-106.784 0zM422.484 52.497l-11.044-11.416v-114.224h107.116l10.86 11.6 7.736 8.584c-13.78 21.136-30.084 42.008-48.724 61.896-18.644 19.876-38.228 37.276-58.048 51.964l-7.896-8.404z" />
<glyph unicode="&#xe644;" glyph-name="meeting" data-tags="meeting" d="M250.864 573.937c4.204 19.764 11.032 38.528 20.192 55.672 17.16 32.22 41.292 59.416 70.66 78.86-1.616 0.644-3.236 1.28-4.872 1.884-20.748 7.468-42.684 11.612-65.824 11.612-89.768 0-165.568-62.616-189.504-148.032h169.348zM270.624 738.557c25.136 0 48.276 9.54 65.824 24.88 5.588 4.976 11.176 10.78 15.564 17 6.38 8.708 11.572 18.244 15.16 29.024 2.796 7.872 4.388 16.584 5.184 25.292 0.4 3.32 0.4 6.636 0.4 9.952 0 19.072-4.78 37.316-13.564 52.66-5.988 10.784-13.564 20.736-22.736 28.616-17.956 15.756-40.696 24.876-65.824 24.876-5.588 0-11.176-0.416-16.756-1.656-9.98-1.656-19.548-4.98-28.328-9.54-19.144-9.54-34.708-25.296-45.080-44.784-7.98-14.932-12.368-32.344-12.368-50.592 0.4-23.224 7.98-45.612 21.148-63.444 18.74-25.7 48.256-42.284 81.376-42.284zM747.364 721.969c-27.012 0-52.752-5.708-76.208-15.964 5.796-4.116 11.384-8.532 16.752-13.256 18.636-16 34.036-36.204 46.176-58.092 10.568-18.456 18.252-39 22.78-60.716h179.996c-17.948 63.852-64.232 114.44-123.676 136.416-20.736 7.472-42.68 11.612-65.82 11.612zM746.968 738.557c25.136 0 48.268 9.54 65.82 24.88 5.588 4.976 11.176 10.78 15.564 17 6.384 8.708 11.572 18.244 15.156 29.024 2.792 7.872 4.396 16.584 5.192 25.292 0.4 3.32 0.4 6.636 0.4 9.952 0 19.072-4.784 37.316-13.56 52.66-5.988 10.784-13.568 20.736-22.744 28.616-17.952 15.756-40.7 24.876-65.828 24.876-5.588 0-11.168-0.416-16.752-1.656-9.964-1.656-19.548-4.98-28.324-9.54-19.144-9.54-34.712-25.296-45.084-44.784-7.968-14.932-12.364-32.344-12.364-50.592 0.4-23.224 7.98-45.612 21.144-63.444 18.744-25.7 48.264-42.284 81.38-42.284zM321.128 577.577c-9.168-17.144-15.992-35.904-20.196-55.668-3.228-15.18-4.916-30.956-4.916-47.044 0.168-9.852 1.012-19.62 2.428-29.252 2.936-20.044 8.492-39.452 16.416-57.636 6.496-14.916 14.56-29.024 24.092-41.928 38.076-52.196 98.012-85.88 165.252-85.88 51.032 0 98.012 19.36 133.656 50.52 11.336 10.108 22.688 21.9 31.588 34.524 9.68 13.196 17.992 27.34 24.624 42.764 2.252 5.236 4.312 10.62 6.16 16.172 4.604 12.996 7.596 27.12 9.42 41.456 0.42 3.292 0.804 6.588 1.104 9.892 0.808 6.732 0.808 13.476 0.808 20.212 0 15.78-1.644 31.264-4.752 46.2-4.536 21.724-12.228 42.264-22.776 60.724-12.16 21.888-27.548 42.092-46.18 58.092-5.38 4.72-10.972 9.14-16.752 13.256-33.436 23.792-73.396 37.264-116.904 37.264-11.344 0-22.68-0.84-34.020-3.368-20.252-3.364-39.692-10.1-57.512-19.356-7.22-3.6-14.188-7.636-20.884-12.072-29.372-19.452-53.504-46.648-70.656-78.872zM242.176 445.605h-211.060l34.316 63.444-65.432-63.444v-57.628h258.072c-7.208 18.312-12.588 37.6-15.896 57.628zM958.972 509.045l34.308-63.444h-225.332c-3.312-20.028-8.692-39.312-15.9-57.628h271.552v57.628h0.4l-65.028 63.444zM505 231.061c-114.64 0-342.904-80.252-346.792-226.236h-0.092v-21.632c0-31.116 24.264-56.336 54.2-56.336h585.372c29.936 0 54.204 25.22 54.204 56.336v21.632h-0.088c-3.892 145.984-232.16 226.236-346.804 226.236z" />
<glyph unicode="&#xe645;" glyph-name="move" data-tags="move" d="M1003.872 465.093l-159.064 109.080c-14.188 9.736-32.584 10.788-47.812 2.784-15.204-8.012-24.736-23.808-24.736-41.004v-34.712h-201.9v197.88h34.712c0.048 0 0.072 0 0.084 0 25.616 0 46.344 20.752 46.344 46.34 0 10.7-3.6 20.54-9.712 28.392l-107.58 156.892c-8.624 12.584-6.916 20.116-22.22 20.116-15.272 0-13.58-7.536-22.22-20.116l-109.080-159.084c-9.736-14.192-10.796-32.584-2.788-47.808 8.040-15.204 23.804-24.732 41-24.732h34.736v-197.884h-201.896v34.712c0 17.196-9.532 32.972-24.736 41.004-15.228 8.004-33.624 6.944-47.804-2.784l-159.072-109.080c-12.6-8.644-20.132-6.944-20.132-22.228 0-15.288 7.532-17.572 20.132-26.212l159.072-109.076c14.18-9.736 32.584-10.8 47.804-2.788 15.204 8.016 24.736 23.808 24.736 41v34.716h201.9v-201.9h-34.736c-17.196 0-32.96-9.54-41-24.744-8.008-15.228-6.916-33.612 2.788-47.808l109.080-159.064c8.64-12.596 6.944-20.132 22.22-20.132 15.296 0 13.592 7.536 22.22 20.132l109.084 159.064c9.728 14.196 10.812 32.584 2.78 47.808-8.016 15.204-23.78 24.744-41 24.744h-34.712v201.896h201.9v-34.716c0-17.192 9.532-32.984 24.736-41 15.228-8.012 33.624-6.94 47.812 2.788l159.064 109.084c12.6 8.64 20.132 10.916 20.132 26.212 0.004 15.28-7.536 13.58-20.136 22.228v0z" />
<glyph unicode="&#xe646;" glyph-name="mycalendar" data-tags="mycalendar" d="M396.056 790.857c0-44.18-35.816-80-80-80v0c-44.184 0-80 35.82-80 80v80c0 44.188 35.816 80 80 80v0c44.184 0 80-35.812 80-80v-80zM788.056 790.857c0-44.18-35.812-80-80-80v0c-44.18 0-80 35.82-80 80v80c0 44.188 35.82 80 80 80v0c44.188 0 80-35.812 80-80v-80zM944 830.857h-116.468v-32c0-66.164-53.828-120-120-120-66.164 0-120 53.836-120 120v32h-152v-40c0-66.164-53.832-120-120-120s-120 53.836-120 120v40h-115.532c-44.184 0-80-35.816-80-79.996v-744.004c0-44.18 35.816-80 80-80h864c44.18 0 80 35.82 80 80v744.004c0 44.18-35.82 79.996-80 79.996zM944 86.857c0-44.18-35.812-80-80-80h-704c-44.184 0-80 35.82-80 80v464h864v-464zM511.996 487.361c57.268 0 103.504-46.236 103.504-103.504s-46.236-103.5-103.504-103.5-103.496 46.232-103.496 103.5 46.228 103.504 103.496 103.504v0zM718.944 118.121c-2.32 83.812-138.536 129.892-206.948 129.892-68.408 0-204.62-46.080-206.94-129.892h-0.056v-12.416c0-17.868 14.484-32.344 32.344-32.344h349.312c17.864 0 32.344 14.476 32.344 32.344v12.416h-0.056z" />
<glyph unicode="&#xe647;" glyph-name="olark" data-tags="olark" d="M348.904 758.053h389.892c-2.736 40.66-32.844 72.8-69.492 72.8h-599.584c-38.44 0-69.724-35.376-69.724-78.86v-349.928c0-43.484 31.28-78.86 69.724-78.86h52.644v-138.916c0-9.6 4.96-18.312 12.672-22.32 2.9-1.492 5.976-2.208 9.024-2.208 5.124 0 10.18 2.028 14.192 5.956l93.332 91.22c-3.2 11.196-4.936 23.116-4.936 35.5v349.936c0 63.78 45.868 115.68 102.256 115.68v0zM954.28 677.969h-559.588c-38.444 0-69.72-35.38-69.72-78.86v-309.936c0-43.484 31.272-78.86 69.72-78.86h309.916l161.136-157.472c4.016-3.932 9.084-5.98 14.196-5.98 3.056 0 6.124 0.736 9.020 2.236 7.724 3.996 12.672 12.712 12.672 22.32v138.9h52.648c38.44 0 69.72 35.376 69.72 78.86v309.936c0 43.472-31.28 78.856-69.72 78.856zM504.896 390.737c-29.84 0-54.032 24.164-54.032 53.96 0 29.812 24.192 53.968 54.032 53.968 29.852 0 54.036-24.168 54.036-53.968 0-29.796-24.184-53.96-54.036-53.96zM678.488 390.737c-29.84 0-54.040 24.164-54.040 53.96 0 29.812 24.2 53.968 54.040 53.968 29.848 0 54.032-24.168 54.032-53.968 0-29.796-24.184-53.96-54.032-53.96zM852.072 390.737c-29.84 0-54.036 24.164-54.036 53.96 0 29.812 24.196 53.968 54.036 53.968 29.852 0 54.036-24.168 54.036-53.968 0-29.796-24.196-53.96-54.036-53.96z" />
<glyph unicode="&#xe648;" glyph-name="olark2" data-tags="olark2" d="M842.772 866.365h-550.288c-95.976 0-173.768-81.056-173.768-181.076v-294.22c0-100.020 77.792-181.076 173.768-181.076l169.58 3.56 3.748-180.876 290.552 217.988 52.46 4.596c95.972 0 207.724 81.052 207.724 181.072v248.956c0 100.020-77.796 181.076-173.776 181.076zM825.656 418.413v-50.92c-59.416 56.584-147.12 48.092-147.12 48.092v-79.22c-16.112 24.156-45.588 41.264-72.136 52.628-2.484-20.16-9.928-38.46-19.084-54.132l10.888 6.388 5.728-9.764-29.672-17.4v-45.616h-11.32v33.132c-12.132-13.576-22.308-21.732-23.304-22.508l-6.984 8.916c0.244 0.2 11.184 8.928 23.908 23.624-11.516-0.024-30.064-0.048-50.62 0.048l0.044 11.316c27.52-0.108 51.588-0.044 59.68 0 12.096 16.088 23.888 45.688 28.412 71-23.896 9.040-42.844 13.104-42.844 13.104-8.904 0.992-17.256 2.624-25.344 4.616-3.148-19.852-10.020-44.388-18.172-58.356l10.884 6.388 5.728-9.764-29.676-17.4v-45.616h-11.316v33.132c-12.136-13.576-22.316-21.732-23.308-22.5l-6.984 8.908c0.244 0.2 11.184 8.928 23.904 23.624-11.516-0.024-30.060-0.040-50.616 0.048l0.044 11.316c27.52-0.108 51.588-0.044 59.68 0 12.476 16.596 24.576 47.524 28.756 73.32-142.932 44.972-150.324 244.084-150.324 244.084 5.66 79.22 0 144.292 0 144.292 105.636-14.148 128.256-113.192 128.256-113.192 6.596-20.732 24.52-25.44 24.52-25.44 121.656-48.096 215.028-171.016 215.028-171.016 45.26-38.040 149.948-55.328 149.948-55.328l-56.584-19.804zM464.572 704.345c0-14.943-11.796-27.056-26.348-27.056s-26.348 12.113-26.348 27.056c0 14.943 11.796 27.056 26.348 27.056s26.348-12.113 26.348-27.056zM83.44 407.257v294.24c0 73.74 34.448 139.144 87.432 180.5-90.872-5.908-162.872-84.332-162.872-180.504v-294.248c0-96.020 71.78-174.38 162.46-180.476-53.764 41.98-87.020 108.268-87.020 180.488zM438.060-17.139l-103.732 67.904v130.148h103.732z" />
<glyph unicode="&#xe649;" glyph-name="oursites" data-tags="oursites" d="M736.876 628.793v-701.936h207.124c44.184 0 80 35.816 80 80v621.936h-287.124zM616.876 628.793h-616.876v-621.936c0-44.184 35.816-80 80-80h536.876v701.936zM944 950.857h-864c-44.184 0-80-35.816-80-80v-122.064h1024v122.064c0 44.184-35.816 80-80 80zM151.36 813.385c-19.016 0-34.432 15.86-34.432 35.412 0 19.56 15.416 35.408 34.432 35.408s34.436-15.848 34.436-35.408c0-19.552-15.42-35.412-34.436-35.412zM244.544 813.385c-19.020 0-34.436 15.86-34.436 35.412 0 19.56 15.416 35.408 34.436 35.408 19.012 0 34.432-15.848 34.432-35.408 0-19.552-15.42-35.412-34.432-35.412z" />
<glyph unicode="&#xe64a;" glyph-name="pagecount" data-tags="pagecount" d="M606.652 644.745v-428.384h-118.38v280.704c-19.152-14.556-37.684-26.336-55.588-35.34-17.916-9.008-40.372-17.62-67.38-25.856v95.968c39.84 12.828 70.772 28.252 92.804 46.252 22.024 18.004 39.26 40.224 51.72 66.656h96.824zM993.732 861.713c-20.044 4.536-39.768-8.964-44.060-30.148l-26.956-133.060c-85.856 154.872-243.42 252.052-416.116 252.052-265.94 0-482.32-228.796-482.32-510.040 0-21.664 16.608-39.236 37.1-39.236s37.1 17.572 37.1 39.236c0 237.976 183.084 431.572 408.116 431.572 146.708 0 280.536-82.868 352.984-214.824l-123.696 28.032c-20.032 4.54-39.752-8.964-44.044-30.144s8.46-42.040 28.508-46.588l212.324-48.108c3.608-0.824 7.276-1.060 10.888-0.74 6.012 0.536 11.884 2.62 17.044 6.16 8.272 5.656 14.072 14.548 16.128 24.724l45.508 224.52c4.288 21.184-8.484 42.044-28.508 46.592v0zM956.4 491.937c-20.48-0.704-36.54-18.852-35.872-40.504 3.608-115.204-35.432-225.012-109.94-309.164-74.492-84.156-175.524-132.612-284.476-136.416-4.54-0.156-9.060-0.228-13.584-0.228-142.16 0-273.116 78.080-347.072 204.58l128.952-36.564c19.784-5.612 40.132 6.8 45.436 27.72 5.316 20.932-6.436 42.452-26.22 48.064l-209.74 59.476c-9.508 2.684-19.636 1.276-28.16-3.92s-14.74-13.756-17.288-23.816l-56.228-221.792c-5.3-20.932 6.436-42.44 26.236-48.064 3.22-0.908 6.448-1.352 9.62-1.352 16.38 0 31.38 11.556 35.812 29.088l31.608 124.66c87.924-146.424 240.984-236.552 407.028-236.552 5.336 0 10.696 0.088 16.048 0.272 128.764 4.504 248.156 61.748 336.2 161.216 88.048 99.456 134.192 229.22 129.944 365.396-0.684 21.636-17.844 38.68-38.304 37.9v0z" />
<glyph unicode="&#xe64b;" glyph-name="payments" data-tags="payments" d="M27.404 291.805c14.72 0 29.432 0 44.148 0 0 104.564 0 209.124 0 313.684-23.848 0-47.696 0-71.552 0 5.34-102.268 18.464-209.948 27.404-313.684zM615.176 476.069c-0.484 2.904-3.352 3.428-4.072 6.108 5.464 23.724 24.336 34.016 44.776 42.752-6.496 13.864-17.564 23.148-24.42 36.644-19.024 2.448-27.48-24.704-38.676-24.428-8.76 0.216-8.012 15.132-20.352 16.292-7-11.332-16.508-20.14-24.424-30.54 7.872-5.704 17.040-10.1 20.348-20.36-19.584-45.968 12.096-87.608 57-81.444 24.716 3.396 44.352 29.264 67.168 26.472 0.488-2.904 3.36-3.432 4.068-6.104-3.528-29.724-28.212-38.292-50.88-48.86 5.164-15.876 17.584-24.492 24.42-38.688 19.252 5.18 31.716 17.14 44.776 28.504 5.552-5.984 12.416-10.652 18.32-16.284 12.864 4.764 16.92 18.364 26.456 26.468-2.232 12.68-18.096 11.752-20.348 24.432 18.808 45.668-6.008 85.584-44.776 87.544-33.376 1.68-49.952-25.684-79.384-28.508zM1023.876 590.749c-0.72 7.924-4.56 15.236-10.676 20.328l-274.52 228.58c-6.128 5.1-13.992 7.56-21.984 6.824-7.944-0.736-15.268-4.6-20.356-10.748l-190.048-229.54c-60.896 5.268-113.532 31.28-175.936 25.188-33.012-3.224-67.868-16.532-100.476-25.888-40.632-11.66-76.052-28.028-123.308-28.932 1.008-78.168-2.032-160.4 1.52-236.028 15.528 4.932 30.528 9.364 47.192 13.708 15.532 4.044 34.176 12.668 51.76 9.132 12.74-2.56 19.98-14.964 27.404-22.84 9.596-10.184 19.768-18.432 30.796-25.48l-8.284-10.008c-5.092-6.148-7.52-14.076-6.752-22.020s4.676-15.256 10.856-20.316l274.668-224.812c5.58-4.568 12.308-6.788 19.004-6.788 8.6 0 17.14 3.68 23.076 10.796l439.236 526.92c5.092 6.116 7.548 14 6.828 21.924zM336.444 434.945c-4.528 32.692 22.116 35.020 56.108 33.864l-43.324-52.328c-6.644 4.772-11.692 10.592-12.784 18.464zM550.744 103.165l-225.948 184.932c2.328-0.796 4.68-1.588 7.080-2.384 23.852-7.9 53.412-16.432 77.64-24.368 19.164-6.276 53.78-24.904 82.204-19.796 24.084 4.324 44.448 36.604 33.492 65.48-6.348 16.76-27.292 25.608-44.144 35.024-30.688 17.136-50.992 29.608-78.12 45.204l320.444 387.032 228.316-190.108-400.964-481.016z" />
<glyph unicode="&#xe64c;" glyph-name="pbxmanager" data-tags="pbxmanager" d="M855.544 821.633h-347.028v-767.588c0-34.656-22.048-63.592-48.444-63.592h-181.948c-26.396 0-48.436 28.936-48.436 63.592v767.18c-26.396 0-109.688-28.944-109.688-63.592v-767.18c0-34.66 22.044-63.596 48.436-63.596h687.416c26.7 0 48.752 28.54 48.132 64v767.184c0.004 34.648-22.044 63.592-48.44 63.592zM647.628 23.465h-57.756v63.592h57.756v-63.592zM647.628 118.045h-57.756v63.592h57.756v-63.592zM647.628 214.653h-57.756v63.584h57.756v-63.584zM647.628 309.233h-57.756v63.584h57.756v-63.584zM733.528 23.465h-57.752v63.592h57.752v-63.592zM733.528 118.045h-57.752v63.592h57.752v-63.592zM733.528 214.653h-57.752v63.584h57.752v-63.584zM733.528 309.233h-57.752v63.584h57.752v-63.584zM821.272 23.465h-57.756v63.592h57.756v-63.592zM821.272 118.449h-57.756v63.592h57.756v-63.592zM821.272 215.061h-57.756v63.592h57.756v-63.592zM821.272 311.677h-57.756v63.584h57.756v-63.584zM825.544 557.225c0-18.34-10.872-33.024-25.152-33.024h-188.908c-13.98 0-25.148 14.268-25.148 33.024v127.588c0 18.348 10.872 33.020 25.148 33.020h188.592c13.972 0 25.152-14.26 25.152-33.020h0.312v-127.588h0.004zM446.948 35.757h-151.816c-14.284 0-25.144 14.68-25.144 33.024v785.464c0 18.752 11.176 33.024 25.144 33.024h58.888v63.588h41.020v-63.584h53.152c14.284 0 25.148-14.676 25.148-33.024v-785.472c-1.244-18.756-12.42-33.020-26.392-33.020z" />
<glyph unicode="&#xe64d;" glyph-name="phonecalls" data-tags="phonecalls" d="M392.736 317.673c91.856-91.308 198.124-178.616 239.832-136.492 59.812 60.352 96.604 112.844 229.188 6.832 132.584-106.008 31.3-177.384-26.548-235.828-66.78-67.416-316.948-4.704-564.892 241.908-247.976 246.672-312.46 496.856-245.576 564.272 57.852 58.488 128.308 160.464 234.996 28.348 106.86-132.040 54.736-169.34-4.988-229.592-41.812-42.144 46.128-148.076 137.988-239.448v0zM525.884 753.621c0 0-27.7 4.352-47.128-15.108-19.904-20.036-20.808-54.544 0.256-75.648 12.464-12.38 30-15.088 30-15.088 34.16-6.408 85.62-17.264 140.52-72.18 54.732-54.936 65.628-106.584 72.024-140.828 0 0 2.62-17.576 15.076-30.080 21.064-21.1 55.476-20.196 75.392-0.244 19.416 19.484 15.16 47.236 15.16 47.236-10.904 69.364-44.496 141.896-102.1 199.62-57.612 57.816-129.964 91.38-199.2 102.32v0zM785.8 712.153c100.452-100.672 143.308-214.976 129.384-307.62 0 0-4.84-29.292 14.252-48.428 21.464-21.616 55.56-20.36 75.712-0.164 12.948 12.952 15.812 34.080 15.812 34.080 11.48 79.98-3.028 241.008-159.532 397.928-156.588 156.84-317.276 171.364-397.080 159.868 0 0-21.072-2.8-34.004-15.844-20.16-20.12-21.4-54.28 0.080-75.876 19.176-19.12 48.416-14.284 48.416-14.284 92.432 13.952 206.492-29.008 306.96-129.66v0z" />
<glyph unicode="&#xe64e;" glyph-name="pin" data-tags="pin" d="M788.988 834.185c0-26.704-23.976-48.308-53.596-48.308h-446.772c-29.632 0-53.608 21.604-53.608 48.308v68.364c0 26.68 23.976 48.308 53.608 48.308h446.752c29.628 0 53.604-21.628 53.604-48.308v-68.368l0.012 0.004zM451.692 234.577v-257.056c0-27.968 27.008-50.664 60.3-50.664 33.296 0 60.312 22.696 60.312 50.664v257.056h-120.612zM331.080 717.141v-126.060h361.84v126.060zM705.736 534.989v0.068h-371.308c-118.416 0-214.428-110.52-214.428-217.224v-9.060h784v9.084c0 102.080-87.408 209.66-198.264 217.132z" />
<glyph unicode="&#xe64f;" glyph-name="pivots" data-tags="pivots" d="M1024 890.857c0-33.136-26.308-60-58.76-60h-689.492c-32.456 0-58.764 26.864-58.764 60v0c0 33.136 26.308 60 58.764 60h689.492c32.452 0 58.76-26.864 58.76-60v0zM60-73.143c-33.136 0-60 26.864-60 60v704c0 33.136 26.864 60 60 60v0c33.136 0 60-26.864 60-60v-704c0-33.136-26.864-60-60-60v0zM588.984 441.401c0-46.692-37.852-84.544-84.548-84.544h-202.908c-46.692 0-84.544 37.852-84.544 84.544v202.912c0 46.692 37.852 84.544 84.544 84.544h202.908c46.696 0 84.548-37.852 84.548-84.544v-202.912zM1024 441.401c0-46.692-37.852-84.544-84.548-84.544h-202.908c-46.696 0-84.548 37.852-84.548 84.544v202.912c0 46.692 37.852 84.544 84.548 84.544h202.908c46.696 0 84.548-37.852 84.548-84.544v-202.912zM586 11.405c0-46.696-37.852-84.548-84.548-84.548h-202.908c-46.692 0-84.544 37.852-84.544 84.548v202.908c0 46.692 37.852 84.544 84.544 84.544h202.908c46.696 0 84.548-37.852 84.548-84.548v-202.904zM1024 11.405c0-46.696-37.852-84.548-84.548-84.548h-202.908c-46.692 0-84.544 37.852-84.544 84.548v202.908c0 46.696 37.852 84.548 84.548 84.548h202.908c46.696 0 84.548-37.852 84.548-84.548v-202.908z" />
<glyph unicode="&#xe650;" glyph-name="play" data-tags="play" d="M895.308 459.529l-745.944 488.24c-5.848 3.828-13.3 4.116-19.432 0.748-6.124-3.372-9.932-9.856-9.932-16.908v-985.504c0-7.084 3.84-13.592 10.004-16.948 2.824-1.54 5.928-2.3 9.020-2.3 3.66 0 7.308 1.064 10.476 3.176l745.94 497.264c5.364 3.576 8.584 9.648 8.56 16.148-0.028 6.504-3.3 12.552-8.692 16.084z" />
<glyph unicode="&#xe651;" glyph-name="potentials" data-tags="potentials" d="M267.324 948.037l102.252-185.132h283.256l103.844 187.332c0 0-132.948-41.448-163.844-41.448s-79.42 41.452-79.42 41.452-52.952-43.656-83.844-43.656c-30.892 0.008-162.244 41.452-162.244 41.452zM653.632 590.653h-283.672c0 0-211.984-166.272-211.984-394.132 0-243.1 283.22-263.164 283.22-263.164s83.836-13.236 137.196 0c0 0 287.624 28.892 287.624 261.156 2.008 229.468-212.384 396.14-212.384 396.14zM609.392 158.693c-5.924-12.072-14.312-22.16-25.132-30.272-10.82-8.116-23.612-14.208-38.392-18.26-0.752-0.208-1.548-0.348-2.304-0.544v-24.484c0-17.428-14.132-31.568-31.56-31.568-17.432 0-31.568 14.132-31.568 31.568v19.736c-4.232 0.384-8.392 0.884-12.444 1.548-9.472 1.568-17.948 3.548-25.44 5.932-7.488 2.388-13.736 4.836-18.728 7.336-4.996 2.496-8.636 4.836-10.924 7.020-2.292 2.188-4.060 5.62-5.304 10.3-1.252 4.684-1.876 11.596-1.876 20.752 0 6.040 0.208 10.876 0.624 14.516s1.040 6.56 1.876 8.744c0.828 2.188 1.872 3.64 3.12 4.372s2.808 1.088 4.68 1.088c2.288 0 5.668-1.3 10.144-3.904 4.472-2.604 10.040-5.456 16.7-8.584 6.66-3.12 14.412-6.040 23.252-8.744 8.844-2.708 18.888-4.060 30.124-4.060 7.072 0 13.368 0.732 18.884 2.188 5.508 1.452 10.296 3.536 14.36 6.248 4.056 2.7 7.124 6.132 9.204 10.296s3.124 8.944 3.124 14.36c0 6.248-1.928 11.596-5.772 16.080-3.86 4.472-8.952 8.372-15.296 11.704-6.352 3.328-13.524 6.448-21.532 9.368-8.016 2.916-16.236 6.132-24.66 9.68-8.428 3.532-16.652 7.588-24.66 12.172-8.012 4.576-15.192 10.196-21.536 16.852-6.352 6.656-11.448 14.672-15.296 24.040-3.852 9.364-5.772 20.6-5.772 33.712 0 13.316 2.596 25.548 7.8 36.676 5.2 11.128 12.692 20.652 22.476 28.568 9.776 7.908 21.692 14.048 35.74 18.416 1.352 0.42 2.792 0.728 4.176 1.1v32.376c0 17.432 14.132 31.564 31.564 31.564 17.424 0 31.56-14.128 31.56-31.564v-28.080c1.82-0.216 3.632-0.444 5.424-0.72 8.224-1.252 15.656-2.804 22.32-4.684 6.656-1.872 12.268-3.904 16.852-6.084s7.856-4.064 9.836-5.616c1.976-1.564 3.388-3.12 4.216-4.684 0.828-1.56 1.448-3.432 1.876-5.616 0.416-2.188 0.78-4.896 1.092-8.112 0.308-3.232 0.464-7.236 0.464-12.020 0-5.62-0.156-10.2-0.464-13.736-0.312-3.544-0.836-6.352-1.568-8.428-0.74-2.084-1.724-3.48-2.96-4.216-1.252-0.736-2.712-1.084-4.376-1.084-1.88 0-4.788 1.084-8.748 3.272-3.952 2.184-8.892 4.528-14.82 7.024-5.924 2.496-12.796 4.836-20.596 7.024-7.804 2.188-16.708 3.276-26.692 3.276-7.080 0-13.216-0.74-18.412-2.188-5.204-1.456-9.468-3.544-12.796-6.248-3.332-2.708-5.828-5.884-7.492-9.516-1.668-3.648-2.496-7.548-2.496-11.712 0-6.444 1.976-11.86 5.928-16.236 3.952-4.368 9.156-8.22 15.608-11.548 6.444-3.328 13.78-6.452 22-9.368 8.224-2.916 16.552-6.084 24.976-9.52 8.42-3.432 16.748-7.44 24.968-12.016 8.22-4.584 15.56-10.2 22.008-16.856 6.444-6.664 11.648-14.62 15.6-23.884 3.952-9.256 5.928-20.244 5.928-32.924 0-15.816-2.96-29.756-8.888-41.828zM647.548 646.441c0-8.556-8.952-15.492-20-15.492h-231.092c-11.044 0-20 6.936-20 15.492v60.924c0 8.556 8.956 15.492 20 15.492h231.092c11.048 0 20-6.932 20-15.492v-60.924z" />
<glyph unicode="&#xe652;" glyph-name="pricebooks" data-tags="price books" d="M1023.46 834.985h-100v-817.912h-775.268c-40.136 0-62.984 30.504-62.984 68.132s22.848 68.132 62.984 68.132h712.276v797.52h-724.788c-74.932 0-135.68-56.94-135.68-127.176v-769.644c0-70.244 60.748-127.18 135.68-127.18h888.32v896.824c0 3.816-0.188 7.58-0.54 11.304zM311.456 432.953c0.632 5.2 1.584 9.364 2.86 12.484 1.26 3.12 2.852 5.196 4.752 6.244 1.9 1.044 4.28 1.56 7.132 1.56 3.488 0 8.636-1.86 15.46-5.576 6.816-3.72 15.296-7.796 25.44-12.256 10.148-4.452 21.956-8.628 35.42-12.488 13.48-3.86 28.78-5.788 45.9-5.788 10.776 0 20.364 1.040 28.776 3.12 8.392 2.076 15.684 5.056 21.872 8.924 6.18 3.856 10.856 8.756 14.020 14.7 3.16 5.944 4.756 12.776 4.756 20.508 0 8.92-2.936 16.56-8.792 22.96-5.884 6.392-13.64 11.956-23.308 16.716-9.68 4.752-20.604 9.212-32.808 13.38-12.212 4.16-24.74 8.752-37.572 13.824-12.844 5.040-25.372 10.836-37.572 17.384-12.204 6.532-23.148 14.56-32.812 24.068-9.68 9.508-17.44 20.952-23.304 34.332-5.872 13.376-8.796 29.42-8.796 48.14 0 19.020 3.956 36.488 11.884 52.384 7.92 15.892 19.336 29.496 34.248 40.792 14.896 11.292 33.044 20.064 54.452 26.3 2.060 0.596 4.252 1.036 6.36 1.572v46.24c0 24.896 21.528 45.084 48.092 45.084 26.544 0 48.084-20.184 48.084-45.084v-40.1c2.776-0.308 5.54-0.632 8.268-1.028 12.528-1.784 23.86-4.004 34.004-6.692 10.148-2.672 18.696-5.576 25.68-8.684 6.976-3.112 11.968-5.8 14.984-8.024 3.016-2.236 5.16-4.456 6.416-6.692 1.26-2.228 2.216-4.904 2.86-8.024 0.632-3.12 1.192-6.988 1.668-11.584 0.464-4.616 0.708-10.336 0.708-17.168 0-8.028-0.244-14.564-0.708-19.612-0.476-5.064-1.272-9.076-2.392-12.040-1.124-2.976-2.624-4.972-4.504-6.020-1.92-1.052-4.132-1.548-6.672-1.548-2.86 0-7.296 1.548-13.324 4.672-6.024 3.12-13.544 6.468-22.584 10.032-9.032 3.568-19.496 6.912-31.384 10.036-11.892 3.12-25.456 4.68-40.668 4.68-10.788 0-20.136-1.056-28.056-3.124-7.932-2.080-14.428-5.060-19.496-8.92-5.080-3.864-8.88-8.404-11.416-13.588-2.544-5.208-3.8-10.772-3.8-16.724 0-9.208 3.012-16.94 9.032-23.188 6.024-6.236 13.948-11.736 23.78-16.488 9.82-4.752 20.996-9.22 33.516-13.38 12.532-4.164 25.216-8.692 38.052-13.596 12.832-4.904 25.52-10.628 38.044-17.16 12.524-6.544 23.7-14.568 33.528-24.072 9.824-9.52 17.752-20.884 23.776-34.112 6.020-13.216 9.032-28.908 9.032-47.020 0-22.592-4.512-42.5-13.544-59.744-9.032-17.24-21.812-31.648-38.296-43.236-16.488-11.588-35.968-20.292-58.488-26.084-1.144-0.296-2.352-0.5-3.512-0.772v-34.964c0-24.896-21.528-45.084-48.080-45.084-26.56 0-48.1 20.184-48.1 45.084v28.188c-6.448 0.548-12.784 1.252-18.956 2.204-14.436 2.24-27.348 5.068-38.76 8.476s-20.932 6.912-28.536 10.476c-7.612 3.568-13.16 6.912-16.644 10.028-3.492 3.124-6.188 8.032-8.080 14.712-1.908 6.688-2.852 16.564-2.852 29.636 0.012 8.616 0.328 15.524 0.96 20.724z" />
<glyph unicode="&#xe653;" glyph-name="printtemplates" data-tags="printtemplates" d="M762.536-55.247c0-9.888-8.012-17.896-17.896-17.896h-465.28c-9.884 0-17.896 8.008-17.896 17.896v150.32c0 9.888 8.012 17.896 17.896 17.896h465.28c9.884 0 17.896-8.008 17.896-17.896v-150.32zM839.108 750.681v157.916c0 23.34-18.928 42.26-42.264 42.26h-572.26c-23.34 0-42.264-18.92-42.264-42.26v-351.856h656.788v193.94zM766.712 655.117h-511.996v56h511.996v-56zM766.712 798.073h-511.996v56h511.996v-56zM156.896 656.757h-38.544c-11.044 0-20-8.952-20-20v-80.020h58.544v100.020zM867.108 656.757h38.54c11.048 0 20-8.952 20-20v-80.020h-58.54v100.020zM932.364 475.521h-840.724c-22.088 0-40-17.908-40-40v-317.332c0-22.088 17.912-40 40-40h91.964v68.664c0 22.088 17.916 40 40 40h576.784c22.084 0 40-17.912 40-40v-68.664h91.968c22.084 0 40 17.912 40 40v317.332c0.008 22.092-17.904 40-39.992 40zM241.076 268.857c-33.136 0-60 26.864-60 60s26.864 60 60 60c33.14 0 60-26.864 60-60s-26.864-60-60-60z" />
<glyph unicode="&#xe654;" glyph-name="products" data-tags="products" d="M130.52 573.641l-67.272-194.472 380.68-206.188 67.264 206.188-380.672 194.472zM582.904 172.981l-65.256 204.016 380.672 194.472 76.14-194.472-391.556-204.016zM130.52 573.641l-130.516 164.084 387.124 213.132 124.072-168.86-380.68-208.356zM517.644 781.997l128.104 168.86 378.252-217.908-124.072-161.48-382.284 210.528zM108.768 301.349l341.196-187.528 48.4 145.472v-332.436l-392.016 199.248 2.42 175.244zM574.44 116.433l-44.376 145.476v-332.44l392.024 199.244v172.644l-347.648-184.924z" />
<glyph unicode="&#xe655;" glyph-name="project" data-tags="project" d="M946.852-73.143h-870.108c-41.092 0-75.328 37.704-75.328 81.972v458.904c0 0 210.184-110.032 389.044-154.744v-49.092c0-23.236 17.32-42.084 38.672-42.084h161.744c21.344 0 38.672 18.852 38.672 42.084v46.908c180.864 44.712 393.044 154.74 393.044 154.74v-458.46c-0.412-45.16-34.656-80.228-75.74-80.228zM560.972 423.129c18.344 0 33.228-18.852 33.228-42.084v-82.084c0-23.236-14.884-42.084-33.228-42.084h-97.944c-18.344 0-33.228 18.852-33.228 42.084v82.084c0 23.236 14.884 42.084 33.228 42.084h97.944zM948.264 786.913h-227.192v81.968c0.004 44.272-34.648 81.976-75.732 81.976h-266.676c-41.088 0-75.728-37.26-75.728-81.976v-81.968h-227.2c-41.088 0-75.736-37.264-75.736-81.972v-163.944c0 0 208.984-112.66 390.66-159.564v37.7c0 23.236 17.328 42.084 39.080 42.084h166.54c21.756 0 39.080-18.848 39.080-42.084l0.408-37.26c179.252 46.908 388.24 159.124 388.24 159.124v163.944c-0.008 44.268-34.656 81.972-75.744 81.972zM642.52 789.537h-265.068c0 0 0 18.852 0 42.084s17.328 42.084 38.668 42.084h189.736c21.352 0 38.672-18.848 38.672-42.084s0-42.080-2.008-42.084z" />
<glyph unicode="&#xe656;" glyph-name="projectmilestone" data-tags="projectmilestone" d="M562.668 950.857h-101.336c-188.952 0-341.332-162.712-341.332-365.392v-328.284h784v330.732c0 200.232-152 362.944-341.332 362.944zM498.284 316.721l-272-4.896 209.904 204.72 101.332-66.472-39.236-133.352zM548.952 476.989l-96.764 61.58 50.668 42.004 57.524-37.112-11.428-66.472zM581.332 575.677l-57.524 37.108 43.808 49.348 34.668-24.88-20.952-61.576zM608.76 664.577l-30.092 19.576 16 29.768 30.092-19.576-16-29.768zM122.476 173.581h779.048v-246.728h-779.048v246.728z" />
<glyph unicode="&#xe657;" glyph-name="projecttask" data-tags="projecttask" d="M686.632 679.493h-67.204c0 0 0 116.060 0 172.196 0 52.040-49.968 99.168-109.924 99.168-59.96 0-104.928-45.076-104.928-99.168 0-51.628 0-172.196 0-172.196h-67.2c-19.984 0-34.976-13.524-34.976-31.552 0-15.98 0-63.1 0-63.1h419.2c0 0 0 45.072 0 63.1s-14.984 31.552-34.968 31.552zM511.776 771.521c-27.984 0-48.976 20.94-48.976 48.86 0 27.916 20.992 48.856 48.976 48.856 28 0 48.976-24.752 48.976-48.856-0.004-27.916-20.98-48.86-48.976-48.86zM725.904 445.533l-214.044-235.668c-10.556-11.6-25.232-17.564-40.024-17.564-11.74 0-23.548 3.764-33.404 11.484l-133.784 104.732c-23.068 18.068-26.816 51.020-8.344 73.6 18.444 22.6 52.144 26.264 75.212 8.184l94.104-73.672 180.304 198.52c19.604 21.596 53.444 23.564 75.544 4.332 22.088-19.228 24.076-52.308 4.436-73.948v0zM903.544 185.469v585.792c0 34.012-32.252 63.104-72.224 63.104h-174.424v-99.32h100.204c19.988 0 34.976-13.524 34.976-31.552v-641.768c0-18.032-14.988-31.556-34.976-31.556h-487.484c-19.984 0-34.972 13.524-34.972 31.556v637.768c0 18.032 14.988 31.552 31.796 31.552h102.928v103.32h-179.424c-37.7 0-69.948-27.044-69.948-63.104v-781.304c0-34.008 29.976-63.1 69.948-63.1h641.832c37.248 0 72.224 27.044 72.224 63.1v195.872c-0.148-0.12-0.308-0.24-0.456-0.36z" />
<glyph unicode="&#xe658;" glyph-name="purchaseorder" data-tags="purchaseorder" d="M365.38 678.577c7.976 7.844 12.2 17.772 12.2 30.312 0 12.028-3.76 21.956-10.784 30.32-7.040 8.364-20.636 12.54-40.328 12.54h-29.076v-84.668h25.788c20.164-0.004 34.228 3.652 42.2 11.496zM678.164 745.993c-21.1 0-37.976-8.36-51.116-25.084-12.656-16.728-19.228-44.428-19.228-83.1 0-38.156 6.572-65.848 19.228-82.588 12.672-16.72 30.016-25.096 52.056-25.096 22.516 0 39.864 8.38 52.524 24.58 12.2 16.204 18.756 45.996 18.756 88.328 0 35.54-6.564 61.672-19.232 78.4-13.124 16.728-30.948 24.56-52.988 24.56zM824 950.857h-624c-44.184 0-80-35.816-80-80v-864c0-44.184 35.816-80 80-80h624c44.184 0 80 35.816 80 80v864c0 44.184-35.816 80-80 80zM191.86 449.121v0.536h0.008v378.912h174.452c37.984 0 66.588-9.928 85.348-30.312 18.756-20.384 28.604-48.604 28.604-86.236 0-38.156-10.32-67.94-30.952-89.9-20.624-21.428-52.048-32.404-94.256-32.404h-57.68v-140.596h-105.524zM724 50.849h-424c-33.132 0-60 22.384-60 50 0 27.608 26.868 50 60 50h424c33.14 0 60-22.392 60-50 0-27.616-26.86-50-60-50zM724 234.849h-424c-33.132 0-60 22.392-60 50 0 27.616 26.868 50 60 50h424c33.14 0 60-22.384 60-50 0-27.608-26.86-50-60-50zM835.256 532.757c-13.592-28.22-32.828-50.164-58.148-66.372-25.32-15.68-56.748-23.512-94.256-23.512-38.444 0-69.864 6.792-95.18 20.38-25.324 13.584-45.492 35.016-60.972 64.804-15.464 29.272-23.436 66.372-23.436 110.8 0 61.676 15.472 109.764 46.416 144.248 30.944 34.496 74.1 51.74 128.968 51.74 56.728 0 100.344-16.724 130.828-50.696 30.476-33.968 45.952-81.008 45.952-142.164-0.012-44.416-7.036-81.004-20.172-109.228z" />
<glyph unicode="&#xe659;" glyph-name="puzzle" data-tags="puzzle" d="M874.188 464.937c-36.42 0-69.796-12.988-95.764-34.556v273.524h-275.584c22.528 26.172 36.188 60.18 36.188 97.404 0.004 82.596-67.076 149.548-149.816 149.548-82.744 0-149.82-66.952-149.82-149.548 0-37.22 13.652-71.232 36.184-97.404h-275.576v-272.056c25.696 20.684 58.36 33.084 93.936 33.084 82.74 0 149.812-66.96 149.812-149.552s-67.072-149.556-149.812-149.556c-35.58 0-68.24 12.408-93.936 33.080v-272.048h275.088c-22.244 26.096-35.696 59.892-35.696 96.836 0 82.596 67.080 149.552 149.82 149.552 82.736 0 149.808-66.952 149.808-149.552 0-36.944-13.448-70.74-35.688-96.836h275.084v273.524c25.968-21.564 59.344-34.556 95.764-34.556 82.744 0 149.816 66.96 149.816 149.56 0.008 82.588-67.068 149.552-149.808 149.552z" />
<glyph unicode="&#xe65a;" glyph-name="quickbooks" data-tags="quickbooks" d="M1023.46 834.985h-100v-817.912h-775.268c-40.136 0-62.984 30.504-62.984 68.132s22.848 68.132 62.984 68.132h712.276v797.52h-724.788c-74.932 0-135.68-56.94-135.68-127.176v-769.644c0-70.244 60.748-127.18 135.68-127.18h888.32v896.824c0 3.816-0.188 7.58-0.54 11.304zM377.784 874.517h325.232c0 0-90.968-0.8-89.84-135.376v-434.060l-161.268 100.888-167.408-105.356-2.688 421.98c0 0 1.724 147.388 95.972 151.924z" />
</font>
</defs>
</svg>
