<?xml version="1.0" encoding="utf-8"?>
<!-- Generator: Adobe Illustrator 15.1.0, SVG Export Plug-In . SVG Version: 6.00 Build 0)  -->
<!DOCTYPE svg PUBLIC "-//W3C//DTD SVG 1.1//EN" "http://www.w3.org/Graphics/SVG/1.1/DTD/svg11.dtd">
<svg version="1.1" id="Vtiger_logo" xmlns="http://www.w3.org/2000/svg" xmlns:xlink="http://www.w3.org/1999/xlink" x="0px"
	 y="0px" width="256px" height="256px" viewBox="0 0 256 256" enable-background="new 0 0 256 256" xml:space="preserve">
<g>
	<g>
		<path fill="#FFFFFF" d="M54.9,93.038c1.583,0,3.14,0.14,4.672,0.351c6.251,0.839,11.969,3.328,16.723,7.027
			c1.425,1.104,2.76,2.317,3.999,3.632c2.791,2.954,5.044,6.388,6.677,10.166c0.064,0.158,0.134,0.318,0.203,0.479
			c0.624,1.233,1.887,2.087,3.361,2.087c1.038,0,1.973-0.419,2.66-1.094c0.007-0.011,0.01-0.011,0.021-0.019
			c3.054-2.793,6.415-5.253,10.079-7.253c7.346-4.006,15.768-6.294,24.708-6.294c8.944,0,17.359,2.288,24.712,6.294
			c5.468,2.984,10.33,6.938,14.388,11.614c2.136,2.462,4.044,5.126,5.692,7.971c3.475,5.991,5.776,12.739,6.607,19.933
			c0.091,0.091,0.17,0.195,0.259,0.289c1.046,1.113,2.191,2.141,3.385,3.077c4.037,3.134,8.816,5.163,13.851,5.882
			c0.054-1.092,0.106-2.194,0.106-3.303c0-9.153-1.798-17.883-5.034-25.878c-3.006-7.441-7.27-14.232-12.538-20.116
			c-1.188-1.332-2.433-2.604-3.716-3.835c-4.186-4.003-8.868-7.485-13.949-10.349c-9.982-5.61-21.493-8.827-33.763-8.827
			c-12.269,0-23.776,3.217-33.758,8.827c-3.975-4.559-8.726-8.419-14.049-11.372c-4.986-2.769-10.472-4.732-16.293-5.752
			C60.976,76.07,57.97,75.79,54.9,75.79c-28.842,0-52.22,23.373-52.22,52.209c0,28.838,23.378,52.211,52.22,52.211
			c3.07,0,6.076-0.283,9.001-0.79c10.158,25.461,35.021,43.459,64.1,43.459c27.109,0,50.541-15.656,61.823-38.394
			c-5.752-1.146-11.259-3.118-16.389-5.932c-8.781,16.106-25.84,27.076-45.435,27.076c-21.526,0-40.02-13.217-47.807-31.954
			c-1.615-3.897-2.74-8.047-3.357-12.347c-0.003-0.015-0.003-0.022-0.007-0.035c-0.355-1.72-1.873-3.015-3.705-3.015
			c-0.459,0-0.9,0.099-1.312,0.253c-0.31,0.172-0.621,0.349-0.935,0.503c-3.475,1.804-7.276,3.035-11.306,3.579
			c-1.532,0.203-3.089,0.349-4.672,0.349c-19.284,0-34.966-15.682-34.966-34.964C19.934,108.722,35.616,93.038,54.9,93.038z"/>
	</g>
	<g>
		<path fill="#FFFFFF" d="M201.111,162.963c-1.591,0-3.14-0.146-4.676-0.349c-6.251-0.842-11.972-3.327-16.723-7.025
			c-1.433-1.112-2.764-2.323-3.999-3.637c-2.791-2.951-5.048-6.393-6.677-10.165c-0.069-0.158-0.135-0.324-0.207-0.476
			c-0.625-1.24-1.887-2.088-3.36-2.088c-1.035,0-1.978,0.415-2.661,1.094c-0.003,0.007-0.013,0.011-0.021,0.015
			c-3.054,2.791-6.414,5.254-10.074,7.253c-7.353,4.01-15.768,6.292-24.712,6.292c-8.943,0-17.361-2.282-24.708-6.292
			c-5.468-2.979-10.333-6.938-14.387-11.612c-2.14-2.464-4.047-5.131-5.693-7.974c-3.475-5.988-5.783-12.736-6.614-19.924
			c-0.086-0.099-0.162-0.199-0.256-0.298c-1.045-1.107-2.187-2.143-3.384-3.076c-4.034-3.13-8.813-5.163-13.847-5.881
			c-0.054,1.095-0.11,2.197-0.11,3.3c0,9.161,1.798,17.892,5.038,25.879c3.005,7.44,7.273,14.233,12.539,20.122
			c1.183,1.329,2.432,2.602,3.715,3.831c4.186,4.006,8.868,7.493,13.95,10.35c9.982,5.609,21.489,8.823,33.758,8.823
			c12.27,0,23.78-3.214,33.763-8.823c3.974,4.554,8.718,8.417,14.045,11.374c4.986,2.771,10.476,4.732,16.293,5.744
			c2.922,0.513,5.935,0.794,9.009,0.794c28.838,0,52.21-23.377,52.21-52.215c0-28.836-23.372-52.209-52.21-52.209
			c-3.074,0-6.087,0.28-9.009,0.793c-10.154-25.465-35.015-43.462-64.101-43.462c-27.108,0-50.543,15.654-61.822,38.396
			c5.751,1.144,11.258,3.115,16.392,5.93c8.782-16.103,25.836-27.074,45.43-27.074c21.526,0,40.021,13.215,47.808,31.956
			c1.619,3.896,2.736,8.035,3.361,12.345c0,0.004,0,0.018,0,0.033c0.362,1.722,1.887,3.01,3.709,3.01
			c0.465,0,0.907-0.094,1.314-0.249c0.311-0.174,0.617-0.346,0.936-0.506c3.47-1.793,7.276-3.032,11.306-3.573
			c1.536-0.207,3.085-0.351,4.676-0.351c19.283,0,34.965,15.684,34.965,34.961C236.076,147.281,220.394,162.963,201.111,162.963z"/>
	</g>
</g>
</svg>
