<?xml version="1.0" encoding="utf-8"?>
<!-- Generator: Adobe Illustrator 15.1.0, SVG Export Plug-In . SVG Version: 6.00 Build 0)  -->
<!DOCTYPE svg PUBLIC "-//W3C//DTD SVG 1.1//EN" "http://www.w3.org/Graphics/SVG/1.1/DTD/svg11.dtd">
<svg version="1.1" id="Vtiger_logo" xmlns="http://www.w3.org/2000/svg" xmlns:xlink="http://www.w3.org/1999/xlink" x="0px"
	 y="0px" width="256px" height="256px" viewBox="0 0 256 256" enable-background="new 0 0 256 256" xml:space="preserve">
<g>
	<g>
		<path fill="#0088D0" d="M58.432,94.729c1.507,0,2.988,0.133,4.446,0.333c5.949,0.799,11.391,3.168,15.915,6.688
			c1.356,1.051,2.627,2.206,3.806,3.457c2.656,2.811,4.801,6.079,6.354,9.674c0.062,0.15,0.128,0.304,0.193,0.457
			c0.594,1.174,1.796,1.985,3.198,1.985c0.988,0,1.878-0.398,2.531-1.042c0.007-0.01,0.01-0.01,0.02-0.017
			c2.906-2.658,6.104-5,9.592-6.904c6.991-3.812,15.006-5.988,23.514-5.988c8.511,0,16.521,2.178,23.517,5.988
			c5.205,2.842,9.832,6.605,13.693,11.055c2.033,2.345,3.848,4.879,5.418,7.586c3.307,5.702,5.496,12.124,6.288,18.97
			c0.085,0.086,0.161,0.188,0.246,0.275c0.995,1.059,2.085,2.037,3.222,2.928c3.842,2.982,8.389,4.914,13.18,5.598
			c0.054-1.039,0.103-2.088,0.103-3.143c0-8.711-1.71-17.02-4.79-24.628c-2.859-7.081-6.919-13.546-11.934-19.146
			c-1.129-1.268-2.313-2.479-3.536-3.648c-3.982-3.811-8.438-7.124-13.275-9.85c-9.499-5.339-20.452-8.399-32.13-8.399
			c-11.676,0-22.627,3.062-32.127,8.399c-3.782-4.338-8.304-8.012-13.37-10.821c-4.745-2.637-9.966-4.505-15.506-5.476
			c-2.784-0.48-5.645-0.747-8.566-0.747c-27.448,0-49.697,22.244-49.697,49.688c0,27.442,22.249,49.687,49.697,49.687
			c2.922,0,5.782-0.268,8.566-0.752c9.667,24.232,33.329,41.359,61.003,41.359c25.801,0,48.1-14.898,58.836-36.539
			c-5.474-1.09-10.715-2.967-15.597-5.645c-8.357,15.328-24.593,25.77-43.239,25.77c-20.486,0-38.086-12.578-45.497-30.412
			c-1.537-3.709-2.607-7.656-3.195-11.748c-0.003-0.016-0.003-0.021-0.007-0.035c-0.338-1.637-1.782-2.867-3.526-2.867
			c-0.437,0-0.856,0.094-1.248,0.238c-0.295,0.164-0.591,0.332-0.89,0.48c-3.307,1.715-6.925,2.887-10.76,3.404
			c-1.458,0.193-2.939,0.332-4.446,0.332c-18.353,0-33.276-14.924-33.276-33.273C25.155,109.653,40.079,94.729,58.432,94.729z"/>
	</g>
	<g>
		<path fill="#8ABD33" d="M197.578,161.273c-1.516,0-2.988-0.139-4.45-0.332c-5.95-0.801-11.394-3.166-15.915-6.686
			c-1.363-1.061-2.631-2.211-3.807-3.461c-2.656-2.809-4.803-6.084-6.354-9.674c-0.065-0.15-0.128-0.311-0.196-0.453
			c-0.594-1.18-1.795-1.986-3.197-1.986c-0.985,0-1.883,0.396-2.532,1.041c-0.003,0.006-0.013,0.01-0.021,0.014
			c-2.905,2.656-6.104,5-9.588,6.902c-6.996,3.816-15.007,5.988-23.518,5.988c-8.511,0-16.522-2.172-23.514-5.988
			c-5.204-2.836-9.834-6.604-13.692-11.051c-2.036-2.346-3.852-4.885-5.418-7.589c-3.307-5.699-5.504-12.121-6.295-18.961
			c-0.082-0.095-0.154-0.19-0.243-0.283c-0.995-1.056-2.081-2.039-3.221-2.928c-3.839-2.979-8.387-4.914-13.178-5.598
			c-0.052,1.042-0.104,2.09-0.104,3.141c0,8.718,1.711,17.026,4.794,24.629c2.86,7.081,6.922,13.546,11.933,19.147
			c1.126,1.268,2.314,2.479,3.536,3.646c3.983,3.813,8.439,7.131,13.275,9.85c9.5,5.34,20.451,8.398,32.127,8.398
			c11.677,0,22.631-3.061,32.13-8.398c3.783,4.334,8.298,8.01,13.367,10.824c4.746,2.637,9.97,4.506,15.506,5.467
			c2.781,0.49,5.647,0.756,8.574,0.756c27.442,0,49.688-22.248,49.688-49.69s-22.244-49.688-49.688-49.688
			c-2.927,0-5.793,0.267-8.574,0.754c-9.664-24.232-33.321-41.36-61.003-41.36c-25.799,0-48.102,14.897-58.835,36.541
			c5.474,1.089,10.714,2.965,15.6,5.644C93.122,64.564,109.353,54.123,128,54.123c20.486,0,38.087,12.577,45.497,30.413
			c1.541,3.706,2.604,7.646,3.198,11.748c0,0.003,0,0.017,0,0.029c0.345,1.641,1.797,2.865,3.529,2.865
			c0.443,0,0.863-0.09,1.252-0.236c0.295-0.166,0.588-0.329,0.89-0.481c3.304-1.706,6.926-2.885,10.761-3.4
			c1.462-0.195,2.936-0.333,4.45-0.333c18.353,0,33.274,14.926,33.274,33.271C230.854,146.352,215.93,161.273,197.578,161.273z"/>
	</g>
</g>
</svg>
